<mxfile host="app.diagrams.net" agent="Mozilla/5.0 (Windows NT 10.0; Win64; x64) AppleWebKit/537.36 (KHTML, like Gecko) Chrome/133.0.0.0 Safari/537.36" version="26.0.16">
  <diagram name="Page-1" id="y8tRqj-Gj5kvbYYE22yu">
    <mxGraphModel grid="1" page="1" gridSize="10" guides="1" tooltips="1" connect="1" arrows="1" fold="1" pageScale="1" pageWidth="827" pageHeight="1169" math="0" shadow="0">
      <root>
        <mxCell id="0" />
        <mxCell id="1" parent="0" />
        <mxCell id="S9jC91QOcoUOu3PD02v--40" value="" style="rounded=0;whiteSpace=wrap;html=1;fillColor=#f5f5f5;strokeColor=#666666;fontColor=#333333;" vertex="1" parent="1">
          <mxGeometry x="-680" y="100" width="920" height="440" as="geometry" />
        </mxCell>
        <mxCell id="S9jC91QOcoUOu3PD02v--18" style="edgeStyle=orthogonalEdgeStyle;rounded=0;orthogonalLoop=1;jettySize=auto;html=1;entryX=0;entryY=0.5;entryDx=0;entryDy=0;" edge="1" parent="1" source="S9jC91QOcoUOu3PD02v--3" target="S9jC91QOcoUOu3PD02v--6">
          <mxGeometry relative="1" as="geometry" />
        </mxCell>
        <mxCell id="S9jC91QOcoUOu3PD02v--3" value="Traduccion" style="rounded=1;whiteSpace=wrap;html=1;" vertex="1" parent="1">
          <mxGeometry x="-640" y="241" width="120" height="40" as="geometry" />
        </mxCell>
        <mxCell id="S9jC91QOcoUOu3PD02v--17" style="edgeStyle=orthogonalEdgeStyle;rounded=0;orthogonalLoop=1;jettySize=auto;html=1;" edge="1" parent="1" source="S9jC91QOcoUOu3PD02v--4" target="S9jC91QOcoUOu3PD02v--3">
          <mxGeometry relative="1" as="geometry" />
        </mxCell>
        <mxCell id="S9jC91QOcoUOu3PD02v--4" value="Speech to text" style="rounded=1;whiteSpace=wrap;html=1;" vertex="1" parent="1">
          <mxGeometry x="-840" y="241" width="120" height="40" as="geometry" />
        </mxCell>
        <mxCell id="S9jC91QOcoUOu3PD02v--16" value="&amp;nbsp;PREGUNTA&amp;nbsp;" style="edgeStyle=orthogonalEdgeStyle;rounded=0;orthogonalLoop=1;jettySize=auto;html=1;entryX=0;entryY=0.5;entryDx=0;entryDy=0;" edge="1" parent="1" source="S9jC91QOcoUOu3PD02v--5" target="S9jC91QOcoUOu3PD02v--4">
          <mxGeometry x="-0.2846" y="-1" relative="1" as="geometry">
            <mxPoint as="offset" />
          </mxGeometry>
        </mxCell>
        <mxCell id="S9jC91QOcoUOu3PD02v--5" value="" style="sketch=0;outlineConnect=0;fontColor=#232F3E;gradientColor=none;fillColor=#232F3D;strokeColor=none;dashed=0;verticalLabelPosition=bottom;verticalAlign=top;align=center;html=1;fontSize=12;fontStyle=0;aspect=fixed;pointerEvents=1;shape=mxgraph.aws4.user;" vertex="1" parent="1">
          <mxGeometry x="-1000" y="240" width="40" height="40" as="geometry" />
        </mxCell>
        <mxCell id="S9jC91QOcoUOu3PD02v--19" style="edgeStyle=orthogonalEdgeStyle;rounded=0;orthogonalLoop=1;jettySize=auto;html=1;entryX=0;entryY=0.5;entryDx=0;entryDy=0;" edge="1" parent="1" source="S9jC91QOcoUOu3PD02v--6" target="S9jC91QOcoUOu3PD02v--7">
          <mxGeometry relative="1" as="geometry" />
        </mxCell>
        <mxCell id="S9jC91QOcoUOu3PD02v--20" style="edgeStyle=orthogonalEdgeStyle;rounded=0;orthogonalLoop=1;jettySize=auto;html=1;entryX=0;entryY=0.5;entryDx=0;entryDy=0;" edge="1" parent="1" source="S9jC91QOcoUOu3PD02v--6" target="S9jC91QOcoUOu3PD02v--8">
          <mxGeometry relative="1" as="geometry" />
        </mxCell>
        <mxCell id="S9jC91QOcoUOu3PD02v--22" style="edgeStyle=orthogonalEdgeStyle;rounded=0;orthogonalLoop=1;jettySize=auto;html=1;entryX=0;entryY=0.5;entryDx=0;entryDy=0;" edge="1" parent="1" source="S9jC91QOcoUOu3PD02v--6" target="S9jC91QOcoUOu3PD02v--10">
          <mxGeometry relative="1" as="geometry" />
        </mxCell>
        <mxCell id="xGI-26zCP8r_t2PSa3KI-4" style="edgeStyle=orthogonalEdgeStyle;rounded=0;orthogonalLoop=1;jettySize=auto;html=1;" edge="1" parent="1" source="S9jC91QOcoUOu3PD02v--6" target="S9jC91QOcoUOu3PD02v--9">
          <mxGeometry relative="1" as="geometry" />
        </mxCell>
        <mxCell id="S9jC91QOcoUOu3PD02v--6" value="Enrutador&lt;div&gt;funciones&lt;/div&gt;" style="rhombus;whiteSpace=wrap;html=1;" vertex="1" parent="1">
          <mxGeometry x="-480" y="221" width="120" height="80" as="geometry" />
        </mxCell>
        <mxCell id="S9jC91QOcoUOu3PD02v--23" style="edgeStyle=orthogonalEdgeStyle;rounded=0;orthogonalLoop=1;jettySize=auto;html=1;entryX=0;entryY=0.5;entryDx=0;entryDy=0;" edge="1" parent="1" source="S9jC91QOcoUOu3PD02v--7" target="S9jC91QOcoUOu3PD02v--15">
          <mxGeometry relative="1" as="geometry" />
        </mxCell>
        <mxCell id="S9jC91QOcoUOu3PD02v--7" value="Retrieval" style="rounded=1;whiteSpace=wrap;html=1;fillColor=#FFD966;" vertex="1" parent="1">
          <mxGeometry x="-240" y="120" width="120" height="40" as="geometry" />
        </mxCell>
        <mxCell id="S9jC91QOcoUOu3PD02v--25" style="edgeStyle=orthogonalEdgeStyle;rounded=0;orthogonalLoop=1;jettySize=auto;html=1;entryX=0;entryY=0.5;entryDx=0;entryDy=0;" edge="1" parent="1" source="S9jC91QOcoUOu3PD02v--8" target="S9jC91QOcoUOu3PD02v--13">
          <mxGeometry relative="1" as="geometry" />
        </mxCell>
        <mxCell id="S9jC91QOcoUOu3PD02v--8" value="Asignar pais de origen" style="rounded=1;whiteSpace=wrap;html=1;fillColor=#FFD966;" vertex="1" parent="1">
          <mxGeometry x="-240" y="200" width="120" height="40" as="geometry" />
        </mxCell>
        <mxCell id="S9jC91QOcoUOu3PD02v--26" style="edgeStyle=orthogonalEdgeStyle;rounded=0;orthogonalLoop=1;jettySize=auto;html=1;entryX=0;entryY=0.5;entryDx=0;entryDy=0;" edge="1" parent="1" source="S9jC91QOcoUOu3PD02v--9" target="S9jC91QOcoUOu3PD02v--13">
          <mxGeometry relative="1" as="geometry" />
        </mxCell>
        <mxCell id="S9jC91QOcoUOu3PD02v--36" value="" style="edgeStyle=orthogonalEdgeStyle;rounded=0;orthogonalLoop=1;jettySize=auto;html=1;startArrow=classic;startFill=1;" edge="1" parent="1" source="S9jC91QOcoUOu3PD02v--9" target="S9jC91QOcoUOu3PD02v--35">
          <mxGeometry relative="1" as="geometry" />
        </mxCell>
        <mxCell id="S9jC91QOcoUOu3PD02v--9" value="Asignar tipo de autorizacion" style="rounded=1;whiteSpace=wrap;html=1;fillColor=#FFD966;" vertex="1" parent="1">
          <mxGeometry x="-240" y="280" width="120" height="40" as="geometry" />
        </mxCell>
        <mxCell id="S9jC91QOcoUOu3PD02v--27" style="edgeStyle=orthogonalEdgeStyle;rounded=0;orthogonalLoop=1;jettySize=auto;html=1;entryX=0;entryY=0.5;entryDx=0;entryDy=0;" edge="1" parent="1" source="S9jC91QOcoUOu3PD02v--10" target="S9jC91QOcoUOu3PD02v--13">
          <mxGeometry relative="1" as="geometry" />
        </mxCell>
        <mxCell id="S9jC91QOcoUOu3PD02v--10" value="Explorar tipos de autorizacion" style="rounded=1;whiteSpace=wrap;html=1;fillColor=#FFD966;" vertex="1" parent="1">
          <mxGeometry x="-240" y="480" width="120" height="40" as="geometry" />
        </mxCell>
        <mxCell id="S9jC91QOcoUOu3PD02v--12" value="&lt;div&gt;&lt;br&gt;&lt;/div&gt;&lt;div&gt;&lt;span style=&quot;background-color: transparent; color: light-dark(rgb(0, 0, 0), rgb(255, 255, 255));&quot;&gt;Pinecone&lt;/span&gt;&lt;/div&gt;" style="strokeWidth=2;html=1;shape=mxgraph.flowchart.database;whiteSpace=wrap;" vertex="1" parent="1">
          <mxGeometry x="-215" y="20" width="70" height="60" as="geometry" />
        </mxCell>
        <mxCell id="S9jC91QOcoUOu3PD02v--49" style="edgeStyle=orthogonalEdgeStyle;rounded=0;orthogonalLoop=1;jettySize=auto;html=1;entryX=0;entryY=0.5;entryDx=0;entryDy=0;" edge="1" parent="1" source="S9jC91QOcoUOu3PD02v--13" target="S9jC91QOcoUOu3PD02v--48">
          <mxGeometry relative="1" as="geometry" />
        </mxCell>
        <mxCell id="S9jC91QOcoUOu3PD02v--13" value="Traduccion" style="rounded=1;whiteSpace=wrap;html=1;" vertex="1" parent="1">
          <mxGeometry x="80" y="241" width="120" height="40" as="geometry" />
        </mxCell>
        <mxCell id="S9jC91QOcoUOu3PD02v--24" style="edgeStyle=orthogonalEdgeStyle;rounded=0;orthogonalLoop=1;jettySize=auto;html=1;entryX=0;entryY=0.5;entryDx=0;entryDy=0;" edge="1" parent="1" source="S9jC91QOcoUOu3PD02v--15" target="S9jC91QOcoUOu3PD02v--13">
          <mxGeometry relative="1" as="geometry" />
        </mxCell>
        <mxCell id="S9jC91QOcoUOu3PD02v--15" value="Pregunta generica" style="rounded=1;whiteSpace=wrap;html=1;fillColor=#FFD966;" vertex="1" parent="1">
          <mxGeometry x="-80" y="120" width="120" height="40" as="geometry" />
        </mxCell>
        <mxCell id="S9jC91QOcoUOu3PD02v--28" style="edgeStyle=orthogonalEdgeStyle;rounded=0;orthogonalLoop=1;jettySize=auto;html=1;entryX=0.5;entryY=1;entryDx=0;entryDy=0;entryPerimeter=0;startArrow=classic;startFill=1;" edge="1" parent="1" source="S9jC91QOcoUOu3PD02v--7" target="S9jC91QOcoUOu3PD02v--12">
          <mxGeometry relative="1" as="geometry" />
        </mxCell>
        <mxCell id="S9jC91QOcoUOu3PD02v--37" value="" style="edgeStyle=orthogonalEdgeStyle;rounded=0;orthogonalLoop=1;jettySize=auto;html=1;startArrow=classic;startFill=1;" edge="1" parent="1" source="S9jC91QOcoUOu3PD02v--35" target="S9jC91QOcoUOu3PD02v--10">
          <mxGeometry relative="1" as="geometry">
            <Array as="points">
              <mxPoint x="-180" y="410" />
              <mxPoint x="-180" y="410" />
            </Array>
          </mxGeometry>
        </mxCell>
        <mxCell id="S9jC91QOcoUOu3PD02v--35" value="&lt;div&gt;&lt;br&gt;&lt;/div&gt;" style="image;aspect=fixed;html=1;points=[];align=center;fontSize=12;image=img/lib/azure2/general/Files.svg;imageBackground=default;fillStyle=solid;" vertex="1" parent="1">
          <mxGeometry x="-198.28" y="380" width="36.57" height="40" as="geometry" />
        </mxCell>
        <mxCell id="S9jC91QOcoUOu3PD02v--41" value="" style="shape=image;verticalLabelPosition=bottom;labelBackgroundColor=default;verticalAlign=top;aspect=fixed;imageAspect=0;image=data:image/png,iVBORw0KGgoAAAANSUhEUgAAAfkAAAIACAMAAAC2HeWaAAAABGdBTUEAALGPC/xhBQAAACBjSFJNAAB6JgAAgIQAAPoAAACA6AAAdTAAAOpgAAA6mAAAF3CculE8AAAAB3RJTUUH5QIQECo5jMzDPgAAAwBQTFRFAAAAAAAAAAAAAAAAAAAAAAAAAAAAAAAAAAAAAAAAAAAAAAAAAAAAAAAAAAAAAAAAAAAAAAAAAAAAAAAAAAAAAAAAAAAAAAAAAAAAAAAAAAAAAAAAAAAAAAAAAAAAAAAAAAAAAAAAAAAAAAAAAAAAAAAAAAAAAAAAAAAAAAAAAAAAAAAAAAAAAAAAAAAAAAAAAAAAAAAAAAAAAAAAAAAAAAAAAAAAAAAAAAAAAAAAAAAAAAAAAAAAAAAAAAAAAAAAAAAAAAAAAAAAAAAAAAAAAAAAAAAAAAAAAAAAAAAAAAAAAAAAAAAAAAAAAAAAAAAAAAAAAAAAAAAAAAAAAAAAAAAAAAAAAAAAAAAAAAAAAAAAAAAAAAAAAAAAAAAAAAAAAAAAAAAAAAAAAAAAAAAAAAAAAAAAAAAAAAAAAAAAAAAAAAAAAAAAAAAAAAAAAAAAAAAAAAAAAAAAAAAAAAAAAAAAAAAAAAAAAAAAAAAAAAAAAAAAAAAAAAAAAAAAAAAAAAAAAAAAAAAAAAAAAAAAAAAAAAAAAAAAAAAAAAAAAAAAAAAAAAAAAAAAAAAAAAAAAAAAAAAAAAAAAAAAAAAAAAAAAAAAAAAAAAAAAAAAAAAAAAAAAAAAAAAAAAAAAAAAAAAAAAAAAAAAAAAAAAAAAAAAAAAAAAAAAAAAAAAAAAAAAAAAAAAAAAAAAAAAAAAAAAAAAAAAAAAAAAAAAAAAAAAAAAAAAAAAAAAAAAAAAAAAAAAAAAAAAAAAAAAAAAAAAAAAAAAAAAAAAAAAAAAAAAAAAAAAAAAAAAAAAAAAAAAAAAAAAAAAAAAAAAAAAAAAAAAAAAAAAAAAAAAAAAAAAAAAAAAAAAAAAAAAAAAAAAAAAAAAAAAAAAAAAAAAAAAAAAAAAAAAAAAAAAAAAAAAAAAAAAAAAAAAAAAAAAAAAAAAAAAAAAAAAAAAAAAAAAAAAAAAAAAAAAAAAAAAAAAAAAAAAAAAAAAAAAAAAAAAAAAAAAAAAAAAAAAAAAAAAAAAszD0iAAAAP90Uk5TAAECAwQFBgcICQoLDA0ODxAREhMUFRYXGBkaGxwdHh8gISIjJCUmJygpKissLS4vMDEyMzQ1Njc4OTo7PD0+P0BBQkNERUZHSElKS0xNTk9QUVJTVFVWV1hZWltcXV5fYGFiY2RlZmdoaWprbG1ub3BxcnN0dXZ3eHl6e3x9fn+AgYKDhIWGh4iJiouMjY6PkJGSk5SVlpeYmZqbnJ2en6ChoqOkpaanqKmqq6ytrq+wsbKztLW2t7i5uru8vb6/wMHCw8TFxsfIycrLzM3Oz9DR0tPU1dbX2Nna29zd3t/g4eLj5OXm5+jp6uvs7e7v8PHy8/T19vf4+fr7/P3+6wjZNQAAAAFiS0dE/6UH8sUAAEKDSURBVHja7Z11QFRL+/jPBrs0iJSSKhIqit1iYXd3t147rt15Lezu7i5sxUBRUSkRFRREumvj/Lz3fb+/+2LNzJmZ3XPWff5mz5kzH2bmmScZRpdEbFKshEvpcg16j9qw717QV3mnYP+RD0FBd7avm9G/e2WvMiWLm0oZvegOdMvStdr2WbDtSkgU+ytRfLy1b9HwdvV9nIz0kyZ4kdjX771g8/nXWSysZEc9PL5ieHMPA/3kCVfkFYdtuvryM4ssqrTI+ydndCwr18+hAMV+4JZH71MLWc6SlRAdMK+UfiKFJMZ2Vcc/VrMkRBm1vm1ZK4l+TgUghmX9Zl5IYwnKp119q1mK9DPLb7FsueBSAkta8p5v6u+lV/l4LGVGno8qZKlIwr217YvpZ5iXIq3u/yqVpSf5CQ+mmuinmXenu1P/ELWapSzquBWVi4n1s80jZd5nbLCC1Yh82d7JQa/q80QMqi99nMdqTDIOjSyjZ88HQ53vmieFrCZFnRIw3FQ/8doWx9Uf81hNizrlViP91Gt1vTvOzVSzWpGCm22t9bqelkRSesRTBas1yT7aSu/N1YqYjTifxmpVPs2roA/k0LzU3JfCalvybw3T2/U0LFbjXilY7Ysq+byPHoYmLTeNb6pYfohaOaeEfsvXlGbnMTOF5Y8o7rY110PRiGbX6Uo+yyt5t8BZj4W+2M99p2J5Jtnn6+nB0JZSlzNY/okqbIg+WpOmiMy6v1GzvJT845X1ih491a7s0i8sb+VpBz16WuJ7Lo/lsXwcYqFnREXavmD5LQlLXfSUyIt8cBTLd8k67qEHRVq3K7EsjeW/qMOby/SwiEr5rYWsICSlj7GeFkGperWAFYjEDdfreeSk6W3CjvWwrxJw8qsEvAoLe5tDNjJ7to2eGCFp+FhJyLkSfWvvqkGtfDzdvoqj/VdxLOPm5u7t03PE4r2BpP4B0uea6ZmREGmLV7h2O1V2cuzjdYOrywykEonoB8mRIrFYIjV0bT9l99tPadgahWpvcT02AuDbvsJc6B+Djs3uXBbydTKfwZsvhyRiOoUO6vPuscWg11ssc3rYqUXdvQ3R3mlea5D/zUSs5Nt97np0mOAHRGMASN0/uJ4LJ2u6SbnWiwLTMfy2e0vr4WFt9X2iOe+7eQ8mVrXFcKKYutZeGs8Zfe4O/VmPA745xzNenRk7t5wBdiaERDbkWnwuN/1SteLflGsjMxuHMu169Bi4dPXq7dfu3XuRmf9Vkp7eu3dr3+rVPXo0KO1oa2msT9b7V1pwA6+KuzaJlIolr7X4AUcP4Wzrr/+7Nq6VG7WZtfZy2C9NUfkRV7fP7duqtreTsb4sy1dxD+U04/E7epUgOYxyc29yOvEz/uo8cs6OM08TYK0R+W8eHl8+vFkZw98dvNdpLvOdtKcD6RPWoNzQ61yCPrNis9BPioyIm/tnd/ut9UOP0xxMKnnH/GwoJDrKnHqHshoTVXZC+O0l9X5Xr1+JbchOGlXquWpSSuek2GJkuEYjgpSFsWv8HMx/vwgv01nZyHfoW72pJrd6rArRdBJHxOYBlW1+s2TtvshV7cIWlqN8L5LV2RfPalqCdwz1/p1K8VVFNd0VHK2vgQom1r3vKTXOPiVwY73fJpq/5CXE2YkcUlIz1mT3DdkaR88Wvr/Y8/dI1y6+F027yzjoqbHDUOoboYW0PnVh/OryxXRe3TObhWY5iZqo0c3QefNnVhuSfainq25beA06IR3y2ZfbaHiAxUaGaiepM/XMkBK6TN7tHpLNbpWXxheCUdN7rHYk6VQ/a90lvwmlDkrqBCst+DjEpY5rCb0q8UpXHS3JJeqEcG9SRjfU0slnOU9bOX7qwqA2xXXxvPcOQwh/CKippVFa+h3MZrUmeWda6V6TjZIH4C906Ts9tfP98hp/xWo3nyN6eXkdAy8fBR/5mLNJS+VpHKY/0nrKT97d/roV1V89GN6jvdZWO2PsfDedD4U7EvZU0CHwVhug5zRzojb8GCKTmicKeFKwRfVxioPO+PHaQxvvEiZpo6eMQeUlCSyP5EYLSx1Z8g9gP/nzFG14MOwnPVKwvJKE+WV1YtlPgrbfTLbS/OiMu53MYfkmGaca6YD3vir0VX6r5vVaccW9n3lXgvEfD+4fggdvcQjSepe3V+PBiQZ2C1P5yP0f9odchO2+lXSPgQxL13jiksR5wFOWv6IK6iDomsvOJyH/xS96atpU2/lkOstriZkq4Cw+SbcUyH/wehrWZitvf8/yXZI2CTday/YU3Dcm9tCsLltiSogQqjPlHRVszEYHOPWuYKxGHZTWnYMFUo5N9bihMJNyLB7Cgd+t0UHVPpvHCkbC+wiyc+ZQuK+7psECNPIaSz+wQpLY6QJEbx0I9W0RrTV3c7Wb+oT4gs+LiIi4eebM/uV/y+pDZy5HRGQSfHz6CuEF6fVOgvmyrJmaC0Fr+YBood34gPV969es5uXl5eroaGf+t1jYOzp7eVWp2WXGvjuEAj2y/IV2u7O5COP5VJ3VkP4qMq5+IouIL1adkxofeX5Se1cTQ9nPLqNiqdzIxKb1tIvvkrJwHUJ5m0oKK0yrA9SNObS+ZkYjrbiYiC9W8eXF2T/bOEEfUMa+o/c8iMbL4CnY6Cgk8Ob+MFe6giGaGY3jiPtE7GrnVw2sgnzRcmq54MRrHPgFW60ERL5OOMw3XdVI/XCzzscJmGrTLs1qVYpbvRuJQ/3BGzGshoVrhKPmGU6GWfJpDTQxlgr74vDzpD8sbuJshHHeiq18xj7kfLHIXCsYNa8MTA0axRz64VcGTtMScbkXxJ9qbmmArWZJjWsvi8/m5hjO3SgUNa8PzOc8rkzdZ+Q88DGubp31al0VYkbUEpOuJXK6YRSsEciqvwLxMcljaFulZV1O4jY6zrg+m2zSj8OQfZxuGSkzBGHDt4eIblOepZ1VUW0ltqn2yhBP4hNu0/VAMhcNs5sQyE+A+JIvXeg65W2mhuCaat/NdKHhPxbbtzrJYWjhnfkPXgYTan2Wpr1eZNb2OWb6REH4dGdacQNiww4vclCHp35Sl/fBec0hKo3l16E4AIsGuzCXuzLGn26LQovpj5EDvu/V4HkkvnQNhMXqEsWbXLXl7zBN9IkHqW+tEu9l71Btx8d4XjzXFaIjWWZzaq+3nPYYM9iqIGBACQ1cn82a30JFv5PH2I2bzb2ZBf6GI7Q6wMmaBeCaapNGu2ooMNBzEWJNrty+fGRuYGbrPfpcYk4hxE6b1YtO7J1RlcMZeBu9MmFbOc0pUrJ6l9FO+3e+fDvqLd1qD94WAX9PptIISuaOnRebcKqZZrsQ2C39ghSVecOTT9jllfr4X/uEYB7PnUnBICV2GXod1/1+f4C9xidvBFK/ztx1/OmUatVh3X1EI2l4EwoKRreTiZgafeT8ylqYP4O6x3IRBvllAE/MuF7jn35EjV9X7CXvpHPZ/QnTN5Ozs5apVhxiYoflWQjjfKP9SkoioxIdTiZyiDb5QvqyLC057ROeL1ad86CuodYcofK+CHqp+oGJdrnLnBvNi+A2zc8IFwRx7BeEu96DJmo3d7VXCILjfrlW9/uyI09xLjuwguxNrsWxLEzNLmKRt5ZLUBo0QuilFddUewMtOex6KveJrk7SCOqzMgo39mJHY+33kxNXvgStLilOOGnr8j7oRhLGTMcQ3KzMp73IxeOueNSdF/ckcbnb0GNO+0MbXjtpsYFP87CuT0uITZaZX2Q+3k2u8O1YvtQaFtkdgvY3PK+jcW1U4tzvDm7SSD1CM2XuuxezspUieosTwx+x3g6dkrdD0yH4dj1P4WpT7H1CKSPVl2Ee8OqEw6351TDWeUsGrG6i2dgsWctTcfgpC0uIJAaXHIYdVXulnxPf3B+uJ2HVvFBNlsp0Wf6WQIpSQU8C023Y8mIS5jjezy7Fw4KDXtBn6TyNjcms43MiVUbC8cOw5FX3p+CVslMl7fLiZRSzyA62NHi0j4Y2es91hIoOnHbFHYr7RNz1nnq+CW+j1+u/hPunzluvkaqh9gNJtXZSrcArlSByGH4LM9gq5+54C4a3YtAasjv629YauMpV3f6ZVAX4lKF4Y+lxPBlTo4+e683r6GWToR/hrqSb6CdcDXtGrrzM64Y4Iym1CTsvdltNvvcMMfsLzkzxoSHl3afi6VyCLR9uuXC3Hpac8g7vJqfOedDEiP9JqcXOw33NFqpVMs17RrAERX2Us2pl3+sR5stzn4wSRsMIZ7iEwDRfimMoPv0jSfBs/kqu/4FNd+EeOdGLKzMCkV5wYZkX6d1Q7LelEgXPpg7npmNWWhmBecAn720jnFYR5ouhPJCFfrQGUPkk6dLAnzgVwzKeGIrrm7nXxU5A7WFEpeAKxJ+n43eQd3ipJAyefYuu4IlMWt3G3OgLYsfaCqvvq6hRCIxa/aU7DX3VZsJnlriEoN8tqm/DLF1Z+G6DJyM4mQjjtlOdpdDb0dE/hTx49jKyrRZbo0/d10qIFaNLQF3tYrsQf3GVg1SqwO9BvVv8+QnzjXcGlmQEKbVhMkMV/qTvqfVu0Cn//yfaMKxWYt4tYmZ6CrWxu2QezAc+qET0peL6j5VUwLNolzpjPK+cOnFrBRkjWHGFKTqjGETUCdHwOUtJkKxOBl1icN6VfLMZI2SR9oJRbc/ZEXxlrRBa4NFC7UvjKHe59/6g09PcxLNem4HD2/lWoB4E6XAQwlWfVYvcCxvcowaeRaqBNxzHVDujIhVfrFnLrTdCPuQoYl/fOdyFcnF+cS8Y9XY5OeXuLsXuzEjqVjD3yO6TlamkHVr2Ovv+Xw3o47UxdNPtLQ9CoIghVDBcXA9DuVMCdyekQ4djrJ06935LGvmRIuNmj4pWLFblRg00o2kUbgzhtFN30rpyl/r0dDRJ8is5mmofjaFyApvX3v6j1531s6Lo8YeZgytEPFE1X3B1ibw7PcGj/C2S5C9x2nbebKBSwlBaeVH0j/eg+FX15dTIV8qGsONV06Zy93xxSwcxQ5b8ay5hfrtbU0mEt5wY+NMs5/xns+yooT8McYtZjP8an2vclLsXI8r/E9wGJB+BYsjgkNdxu4c9DZOdrMmlX9oSM290pmUxag5Oq1cH4FYNF7kc5AI+9+WwEv89aYDknyAMpyJqjfLC+BnmNG5ycu+9oMQOderhKnS2fLtjYG/tm5aYL7H6i0McRlrwiH99BkTJd01EO+A/bPCkoWYblJ4P5a1OW1iWSkn0jmDPRd40zI1uFHoke+aNKf8baqFF8tkHWtPodil2HnAVdgh3hzhT+Ndzuwh+8068yPsG6LGWr8d7FtletUZeETiaiqnWqNPRL/Ah5ylHO5H/75NOB4fk3a2Apd09QOWef6DiN2Fg2iL/cWZ5KtGVzttikDQfRcw28i1aGrwC/8vhHPROxxEd8gXBPb4LCtAKeVXWnrI0tCuJzfj3yEEKhe/H2xC+XZicAO466incIzGt/RGDHKOW/eC/Wwvk1anX21NRqkv05FaaQfG4J+GDpx9Y/zrJ+ZXG49G0u7xLLX50gdU8+YI746k4zIyaHuLcRj5zV1Oix73LS+Ar4924Prwj2t054a8ft9XQOPmYWZVoWG4kFZdG4ngkIxd6kRzWBvAbuR701q+QPuztwJ84KTRMPutoQyotjc0nPcVM7MgOGkMw3rc++IX+HI2TW1CSZRUBFX+mSGuUfPbdTsUoeMlExr6v8JOH1Tk3GhCroCwFR2WFcnqXdBDKIZ+0++frTIPk88JH0siLFZnV2ZXDEpEs/yqkdqQ94LdxquvnfRc+BEIVOvYXhQc0Rl71dl01Gvs8U2VhJEtKlK//LEtmVN3BL+vN4bEWi7PhN7EX7X+ltmqKfNbuNlR8sfYjA4mmGeRe7UfkuPcCxyBziMYTt4qF/5SXzX7pjdQQ+Wcd7Wn4Zgybn0lmCcvn/dUJuA9tjgNfdB79qQ7noNUZ1QvnX19WNEFenTDDgcZNzsB7xxcK6SWKzyscsdnL/gAyeoW8FiRz4feuANCxpQnymRNp+OBlpf9IYilJ2MCSuFtUa2CO3TtklaIqdIpy5l4vMQ/IJw6goNGXHHS9gKUmOYfbY9YyqvYM9I64xoiPtDoBveJ3gtvhCpV8l8OJLE1RfdiMdxVxAZbQSB2B+Mix0E1cb0EUJxcmeRf/WCVLWQpeT8cxP8iWAa2Gs9GeWPOJGla5g6lKL0DyEpuxEQWsBiQ3sK05d6PeCNChrD6M9PBi6yAdkap7UI1khUfetusDVlNScLQu5/KbjcNAT79sjXKVbw0ZgKV61kSii+TNGm7LYzUo7+dV4hidXQ74D/rIG2XJb4e13LWBC3oRFnmJ97IwlDbKN/5ci1szKv/2OG45mFbAhKMIlNp4TSFLkST1g/xPFRR547EvshGgfZjiJbVseQpzj1AnX27DZbDiAyDfSnwvhP95yM4ZSuie4cIhLzJsGojAXZW9xUP+VYUSWwx4hWnZV6Vvc+UQLroA5EHMnwr/sHaQQ70I/UTBkDetvxOhyJ465eK//UCNl7/Jx9zzY6eWRbZDDgPuzwuhDYXFIFMInnjrGnlpeaReyvm3itRdMaiz+QNeFx228Hp/1L6YLYEqxiYLcv9F/0hUF5mOkbcbjmSqjZla4ZuLTbHOx3GXfequxmhRmpWAkZJ7YP+ZylyHMuKkz0DwMAuBvKzZKYS0GTZ7u+/39xqJ8wjcIlKKsBVIJYCLAyNGDkIGIYvGQLVDVBxE8TXwn7xBif2pKDe5++1Mf2gbk7mvjMfb8tV54cOM4e1uImBfoxtecE9yhnPVPCnF6BB5g1LTUYqp5oSO/EXuSuVj2BWhrzaGr7TyGPSw2+Xh7odtoYZdiNb+lOfk7QYGIBzwijerf52oaNjnGmYVbjZhXT1YLQoYhfm0Kpxivw1qZEdkukNe1vQoSrBV8i5g3RVxmQkvML18imdznQmRh2xlVTEeym5VndEZ8p7rkKJqAzuUgLgfG1Valou57LOvd4XSoVcRIr8IRr3NGWuoI+TF1mPCUDb699MdIWP9jGufz8PLy1AlH60MsbWOJUPeAiYGRXEINXyfp+TF1i2foLB4uxklqM20750s3Nv9CnClldFkyMNUlFWHI6fp8ZO8abMtKHmxaedQ2xW7zgjFLRj7aJCLWBPkTW/DqDjDTHSCfKVFEQg374I7ozj0wGi8Ng532Z8EVFohQ741zJXuLHp6CA/JWwx5gbIXx83w5BI7IbLqeB7Tf6v6sMeDOnmxP4S2o2zACJ68SN74ajrC5OceKMO17Ii0WL9oTP+t4t2fdhK65MvDxJ5xSNfhG3mjmjsQ1rs69XJrrEqWDkvfYcZyKh72LUGVfH8IzT6tudDJS8pPeYfiOb2LXaxe3nAnbhffzH2NfnLITiFA3mIdhMZzyFrg5K2HXEdxpb5d4MPgS/FOF3BDuCOWVvjhlr+BAPmK9yEMyp0kwibf6DyKLzb9gB+hHhhu48Ix0ec8Gm/GxXr7DJjGI+oAPvzU+zlVnOILeanTpmSUm9zDDhbE0rLlbv7JeEY9dda92nIRMnmwr85yE/jlHJte8oO8pMxkhJIAbG7kVMJ1lspdScIM18rZVu3buAAC5F3BHQNU50oIl7x1n2sI1yvlG//KxNPxzUZcwzToKl/NKFf0mafxybcDz0vGREao5I2a7UTqpFxwyJUhL2LPqbjNHnMC+hRpx/Mcn/xO8FvfeQiUvNh9VRSaCV31+Wh9GqUYjHzWp2Oyjz9Y+9+RuQA7fJwCxfWJ3oPfuV8iSPJiw7Fh6DZURdJyWxrlV8xbXMnGU/UUn1aV/L+ReePH3rpDHDK+jADJi206Xuc4xR+GOtGokm7W5yFuwuaHfv8tCgSuCLoSZHgeAn7da0aA5A39tnKvdJNzsZs1BfRMqZWhmOFaeac6WP+t5QOzIxQzQIPZB37bOAGSd1sahuUjj91RhwZ6edPNCZg+vHdbGn190DxQFmAaqMG7BThFIKa84MgXG3YHd19VvJjtRAG92KbNLcyRFYRPs2N2gfaO2K6AkdQHB5wfsBYYecOGAZnYNYpZdU5Qb3MKJZQl1qM+YYbsZN9pfg70N6GNAOOYDEytUQ6RCoq8UbldxApfXKxNo4wy47QyCpN9JvATQTUzZHuBGseHRoyAyEvLTYpiyUnCsqqGFNAb+O6jVmjxv3IDcFaVAkfgXXITEHnr4TdziE5g/uNpzjSWvdWQa3RL8pwFOBvrgnui+JsKh3ytS1+IT2F6YFsay15adtIbFT3wqv2A9/cF3jGSBosEQl7itvYjlblM2FeZhkHXsPz6fGrss6YD3j4JuOU8qcwIgrykzOT3CDOT9xFF/Y+fX56GQZdpejqJEvsEQOElw7+Au8YJC0GQt++CZKqNXtt61kOUHwT3puHD+6qXBNA57t8C/DUOR4BXxzmMAMib+m1HSV7PPtTGmDGoshHFnJZ2vJ0pjeO+3IwoGuQfARwPngHAXaOtAMi7r3qDkh8ZPNjhP5a+dmcRgjKV73Z40Vj2hr7bUsmT3wV4awOgl/d9Bb6THyQf9AZhx1R9me38f+tBYtU3HMGkUhg/xJJC2xSReZvAfNLkxwJe2haYWviU4Tn51D23EeAp4w4UPa9NFrxF2C5UT7vaUWmZMzA8lyx5gAVPOhQclMF38kim+OSznb69m0tqbI9F0K/TD7ag0gez7OowBUHwOQAThDlQtWdn6xL5WyNL/WDFFu94EmWzfbOwIg30xk12p5Aj/xh0pzgAfER73SEfs8zrJ3lyrkNeoqynwNHFabAv0fohMfIbAO9yAQeEuugIeXXOqRo/t2QbuC9GKGenzrzpR8OoJ3aeEE2mj4oadCMrHQ28+TK6QT7zdgtAXmz5PV9QzGkbfExorHv39UTYfygDeE854COu6wT53KCZEKU7+19CuFer3vzpRWPdy/1OJuCTP2iNTX67DpBXRy+uBhNKKy4z8SHCDS/7+igqzXBLDL2FbdAdC0r8rwZ8xHQdIL+vESwhY+/5KPp10glfGQX0Mq8pn/DAf2wCekcv4DMGCp284nVnSwQ3s0m9EwjpEMoPq0vRMOwYee4uwAkkvAbMiRoAfEZDYZPPfzUJtQ+oUefbGQhviB7jQIO9tOnVVM7slcuAtfKBdRTZ8oImH7u2EodRO0x5hmJOO9fBjor/dswdrhWWEvoAn74G9IxUdwGTTz3eneMxXGdNNPxr1PE7G9A47pkKSyK4kYeocr0R9IyIUoIlr3g0wInrPiyy9DuE4EEpDF1Lxahn0ngvp/zbW67AR28GPSPUVaDkVWkz7XGSIsVW7T4imFTyn3UypZCUIbZsE8TBsJO5EJglEKSj5BXxu8pjT7vF7HAER47iil8xGuuemfYa3X9bMNscl/wDRyGSTz7ZiYSNRVJ1/XuU2/2GKjSisyU+a9ENukn9cMkfsxEe+cIHw0nlRhi3O4LSsPTB5NI0Vr1Fm0PIITuRlX8/8p8WkgyOdxz0CH7BqdOu9jSiwd5pwhtU9JedfzPy2UdrmxBVtQxc5iGUs1OlnPWkEZhvWHV/Jhr5/G2WvxP5tCeNKEy766HPCAdt+nxPOYVByDo9RDPsZC4w/23I5z2dYEtFvTbqdBZh3SufjnChMYqS+5KR0H/oLf9NyMcsqW7AUBLnYbcQ5jz9THsaYRvWE0KQlPyXdTHIP3ISCvn84/XNGHoiKTcfpYLq+600cjCN/a4g7fiBRrpvyVE+6WLD0BXj2sey4Lf8gvDpVuSNehLbpSirXjVfpOPkC19NKc7QF1krlFYo7Ot2NhT8t0PjEZy3n1v9bARXgJdjN/6TV77fXp7RjBSbEoRg2cnZ08yC+BDkXYPhI8ZUAW5cfXUC8M9nn+xkzGhKDKquRCjKoYxeXYn4EAwb3YSPHshcUZwr+Wa8Jx/VVsxoUMo9QNGx8p9OIL7sJd5HESLyOv5Y05wE/GV/3pMPbahJ8IwryvXu71V3tSFxw471VeizXh34YysuOA5vhZ48Hvmv6/5AddLHke0+eFVz+w+NHJ2Av9utJ49LnmXjpnkRDteyWQhtz8v1+9EDKgN/d1NPHp88m3dtGGG7st1C6ADhaz96tRfQ7/tKT54AeVaVcLI52XFYz4V9d9qYH/y8VCTQFqUnT4L81xtewlpnokY90/2Qap76wQ+iNEqCK4nZ6MkTIf+382ysK0nfvS1seLBi1fcejeK7gT9roSdPijxbeKM7SStz2VOQ/puoFt/9x5kuBv5qiZ48MfIsm7ypMbkoTUkdWGve902FJYOBPwrQkydInlWELXUjZnOU1IMsopjxfYvRjkDlPry4njxB8iyb82woOfRtIMt8vPxOuWwAzB+Lb6YnD0MepdLK5caWpNT8KZBa3uBvf1gF6KFPH6cnD0E+9/E7hPzbxDX1CBnzrffA1dd4+K3jqPR54MG0TU8egnzi0E6HEFz3ildzHYgMR1QpACpKJ7Hbt9c6cFPaK7Z68hDku0qc+qIU1cu93JdIlKZB+0iY1ymPf4NRMhu4RwVX15OHIc8wUvfFX1CSMg5UImHYMRyfBuWo/3bR94oHOpj/EOnJQ5H/KhUPxKOs+zWuBG73RgehXnb8mzDq6sHAn2w015OHJc/IO15HqbLzYkQp/OjsMu/hTvqib7K8APzJ/Yp68tDkGcZp6hOEoPi0Ez3xj/tRULrlnm8sMxuBw8zsItaThyfPGFVZjlDFUhmz1xt3TPb7oBb9Nyt4OLji5ypzPpOP7cIz8gxjXjEAISheETEdM0tEXO8FzItmFf1V7Y/AX7wqzWfyP+s/r0XyX4/79ndQmqKF9CqBNSjp5CyIt3wpmmxlDi50zraiRv65jpL/+nezghCMevmnGmDVdyl7HcZ63KHojw6Bf7GGGvkka10lzxjU2IBSvTZqWTWcTOChMGW6Txd9wzDwL95yLQHiehr06B1uukqeYaw6nkYw6OYGT8GopWl1CeIVsTWK3gYhzE1+HMdjuxe4zT0dYq6r5BmJbZ93CMs+I7AW93HVhQkBXl70N0Hgn9zm6FmSLoZQc4JaWeoo+a9isiwW4XafucSZs0F3F8TzAz2L/GQC+BfxXEOGR8DYlHP9a5voKnlGWns3QoPs/DNNubpva0IUkEocXMQ0Uz0HHDq4jaN9uQJUNyZl6DyIVs/CJM8wll3PIXTKeN2V48AsN0I8fUcRO54jBJ2Quhx9iP5wNfyyH4410lXyX1Wp0aHw6N9yNOmJm0OY7wOL2PFM5kEEj/3J0bHQGrZFdNrF6jpLnpF7r4bvknKFY8yG1Tbws9NbF/lJGwjv0h2uJRSWQdszMrdXNdJR8n+fe0dTII97xX5LbkNrD3GRWF/k2RXuQmzHAzgueqML8DV9oma4SXWVPGM05Hoa5H7P0WZqcww81c+KpNObrYX4b7zG1bLsE4hwpb0w1F5XyTOSsn++gNoAC//iWN9tAPhIya5X5Bd9IbyK+f04TpVBwwCEmsGJB5rLdZT8V42qxjKoSFmIbiQ/XvQQgYDLivyi1G2I4URzjSCQum5F6QwSv95WV8kzjHmzqzBzMJjj0boE/OzIor+YC2NfnsE9XrB9DEqB9phJLlIdJf/1uO/3BLwOFptyG5wdhOGgbJFfVHwLASSiMvf58tmC0pch/1oPe10lzzBOy4Gn/X5rjqOD2FGKZs4YHIGx968z5T5hZm0PIbT7Zb/sb2Kgq+QZOdDkcotrGkYPsJPgZNFftIDB8Qar4IdTlycI6NnQ5eV0lTzYR/aWaxSUG1jHC7VB/Df828SwwQpnzsQei+IQ0OeGjDL5XckXeHE13m8AzuvHOkV/Mh7GwJTREy8pROS1HcFvxapD6v1vzulvRJ5z0VlxL6CO922KrDdU5NADL8x5k7e6hHLcZ25sYKonjyLg5OjCTUWXr+UmKBTbsJN/HSfcz4NHrwxb4q0njyDFd4Ctsfbf+Pg+QB2++MHt8kqzUI77/IeDzfXk4bf7ScBoi+ffxHxZbYcCEVwGf/JMKh9BQM+mnK8r1ZOHlYbAUID4Xt/8pDlcHvZJawLTJ2t1FyURIW93JUM9eUjbPbBbBbvwGz3dZCdUqGDKBCJdGG0nP0RIRGA/TfQy0JOHkh1AY+nOb4teNYI7fp/5kink6LM6CuW4Dxg0LklPHkJGA6MAzn9rJ5Lvh1O3L5YiM4dmLQ8jpJqr4sML9OQhBJwoGVTl299UhGNQsIXQJEpsuqFUlvlZJLGefBExDAP62xt89yO4shuseimpHg0iyZzIfD15ouSZrcCnd/vuN62SIO9Zw4kVbxVX2Byt1JMnSX4Q8OmjvvODWqyB1LcjO5Gr22vZ9mCmnjxB8k2AT1/xXZyfqNYzSHXrcW2CrcIchwUW6skTI+8AfPr+72sZy2dD2tQVgU4EZ1PmseCLnjwp8mLg0+87fv8rp4uQXlT1VWuS8yn22JWk1pMnQp4BZstF/Sjwozt0Jb9DpchOaecrSXryRMgf5vR4k12wM563z53olIocRz8s1JMnQH4B8PE/jKV1h46cyD7sTbYjrKzy9FQ9eXzyfYCP7/TD302Ht6Xf9SA8rcZ1ThboyeOSrwJ8/I+nzOEadKic+k1Z0n2g5S1uZerJ45EvC0yWm/RjNbtRGPy0P6hhQHpqbSe9QFr3KePkGgQvrvSI9+RdgcEZG3/8Q5OJ8Eq2IrCjMfHZrbEmGiFCtyBwjIPGwBv67UjWXfKM3UF4HVv1Zqwp8fm1aLY3B2HVJ19ppqFlX3JZ6E/2I2GRP/Szn1YIRdlt/U3I76k2PV6j7PgxOz00wF3W6/FP/yH5RN7uHOjxgT+3qiCkPbOqqxWIH/aMyGpGBEJ0tvrD7NJSutwt/G78YkB8Im9zDPT4XxSaXo/iOVU9bU9+2TPSKuujUdb9o+6OYnrc5VU3p//yhqEr5EvdQLpZRU6ypjDbJh3OpKMcO/s7WFDiLnGfBKggrzPkpW2jkNAnHytPY8Zdhz5E2HwU0RsqUgFvOjQAZGTgE3nzNRjkGaM/EpHQK1+OM6Mw5zIPJINu3ts/jMgPovzZZOAtk0/kwQUOf9lQwmg+oi0t/1J9YwrsxY4Q8/6vFD7tZkX0uJd7rk6D8B/rEHnGYjuLKDHzXKkoVx0vpyD47rMPNydoYXAf/wrOhqxD5Bmb26jo2ZOtqehYzn/cQhnFx8U+hG541h0uQ1qShUX+PuAJdR6jkle+XVtJQgG9tMIKlM4g+fcn2ZPYbOrv+gD7SmGRPwCa7zaRyKs+99VUExrL3tz3BIphJ+1eS+xXOi6JhHcd8Yl8MWDE/UagZj30MzJ6VvmkqyUFk4pI2u4uQlcYdeEJHxPuDXUZiXXPWBRrlrDu80DyjOFploOk7/UzpbHujea8RHHkxC2oIuP6b1a8/Vm03B9hkV8FfIbDdW7xsNFLq1BxmdRe9Rbhhqd4PI5jmWbfDfGIX8wn8iWA9RDHAp/RMoobebYwcFwJGuytWu7NQ9l9TnIJH3CY/VLBCpi8Swi3aKz/lQk5HMl/1bECmtJwnolt+6K4kJXxO8ohKh1GPe9noX8vn8i7xWOTtz/Achd1wVFPKkY9+xkRCNHZqvTF9gjHvYnv1UIuKR98Il8R+AG9QI+oEcJiSdzs8jIae7739vcowwge6ARpZDD2mZ/L7VP5RL4t8PHVQKurWyYeebbg3siSVAy6nZD8t6mHOsG0hhGXnfJUwQqf/DDsx5suZrEl6ZIfjRg5scuwIITrtvLdTvBlw7DflXTO38kn8sD+BsCyug63WQLyfrs7jWUvKz0bRf0sfDUNsPtUPfBFxeoE+T2gp0eBSmlXVpEgz6o+zXGlYcyXeO5LQYnbeN7v572eDcqvjMf6Wj6RBxZBuAjyaoxnScnDLg40YuRMulxIQxhF3rm6PznuXYbglmriEXlDoJK6C1St/ggx8mzy3nZU/LdOo4NR8m9jltf8gdZRvOMJ3DJNfCLvDXz6VFCtm3fkyLOKKH9vGuiZWgtjUJZ98JxvbYsG9bbHoAT9KPlOHpxK2xewAdsoWZKSGznakAJ5kVnT4ygG3cxHRct1myx4h7DgVaGLX/CdPLAndXxTwBOasYQl/3FnKv5bWZvgbHi7mzrnVM3/899KrPqGIdzgFYnLS5a5zXPyImDA/DOQIWcGS1yyD/rRWPdMiT+DUdZ9wtKq//gULFudQQn3iDvcQABZ1HZvQA+/Arpmn2MpSOzMijQcObJaa5C0kuDRpRmDKutjEX6Sc7Z/MUYA5NsBs+f32P76CWavaJBn8++Ot6Ox7C39jqOk3WdcHDH3Acq4340o/Y9RgvfkFwMvdcsAzpRKH6iQZ9Wpd1pQ0fId+gaj2JdSshB8clnrqv53uvhO3uwU6LOy/gA8YlAKS0nU+bsqGInIoxfbzIlW0hhwytna/z9bmO/kqz0Fajl9QHb/XJaexMzwNqCx7t2PxKpIjzUrqPv/qKV8Jz8QWPDkRW3AI3YpKZJnFXdH29NAb9z9dAbRgRa+mFekKgPPycuXALEFAOLkjM+ydCX9aEsqITulRjwmOMrEdbWLjpLn5N0uAv+VtwLcZ043KJNnle82lKPhx5G7LUsjNcY7tb91bvCcvB8wQyJtJMhFC+wcHbHvrQKT/ad51jRu9wYVDyfiH/fq3Kd9LL5TRPlN3ngm8MISA4pR8YsAnxfV9yTgTu/t7iXo+G+vpWOOTPFy0Y8CGPhN3vE+8NFPQFbU7sAUxpNSRj7kMq4+lbKnLY3jnnGaGoTleo3dWe+HBg9+k68DDhgHZlaNAq2Zws1/uzzKjn2GeQdQvt3oRQO9rNayOM6DyrnY7SeVf/hNfiX407qDnjELdFDmLPjn74wqrszBXPYFz8bQqLQismhwiuOIPgxz+pm5gd/kIXLNQblP8hXA+85//3lEBrVOp+PpU+qCwLZWNNjLuz3JQc6bKExcbvvziw+vyXcHf+wrkPHUZjfoEZ//zVC36HMtG3Pd5x2uRSX/1m7mC7R2CerP+2v/6r7BZ/KmAeDvW8lgk3/3v17eMrOf42r57+dXoWHQtfgTSckvON/v17sPn8k3B2cA5zbAJx9RZI0a1F//GXfZP/rDhrhFz2P5axSjQ8hkN8ATeUzeYCPYT/0Y2HPMHZiDHfrNmVqsxcUCTPbJ9xsQJj8xGEX9TFvjAwwZ4jH5ahBe6oXAWjblbwFVhe/Wl2Hvt3l46NVp+6oS89+KzBrcKUCIz8u6UFsGfjd/yUsng5Wt5FYMPvkbPwqOWByOu+5j53iTMega19mCcsJn3h0F9Vj+kq9wB/yV1zwIkN/zQ/NJg41xmOgL7g50JADeax5CUxa2MHhOGZGwycvHgAMqCpcY0SLPMMXa3MBd9olH2uFadqwHBaBc5tKW1YKtl8tb8k4QzulPPcDPqRvBkfzXG96IN5joCz9udcHhLm1wCsVXV3AVIfWLt+QnQvyr3ykDfk7D96Cn7Pz5xLsuicE05isSJhfnetzLS23JQeCeG9wPpUYyX8nbQYRN5q8VkSA/51c/9zkdj+kgVwT2LsnFfysrMzYC4TXKNzPRtheekpfAVLmIa8SQID/6l78vPvACtv/2UBv0KjtWA66gVLb6uKcp4gt4Sr46zAl7XqYB8ozUfcJTTPRs1ArU/NuG+1FKGOad62oj0gnyxXfBqNVtGCLkNwAv1O6bMA07bN6zccUQvt9lWSSKfhEzwAldl+An+e4wpcDDoO4vYLPAHvBDjOqeyVBjoVfnP2tjCrcsRbaDUOrkKeLXOnKp4cJL8l7XIKZZNRXqWZzv89/4DfvexPXfshvqwdzurf0CUB4af6AOt7sDH8kbTYXZ6yNLaZI8wzjPf4V5w1NHzasM8t8a+W5E6biUe7kv12gAPpKv/Rbmo5ebaZY8I2+47gvmqs99OPXXlQxLL3yF4ItVvp7qxjC6Q97wCpRDpBncqekB9NI+hvaZWTW+hrvjp5/x+/mNxLDLS5SbXNYaH4xoXx6Snwy1qR6ALD5uuxfon4e3s4iMe4fn4al6quQ9lX+omopMfAMQVAlV5jUfrKKcvCMvbg5V/+FzX8j7KzgmJwqp67vDwlDMhBz2w8Ky3yvj8prrEbI91Bl3+2NG9/OOvOcNGGup8hRsvQrTdaBnvUfTQgx8t2An5Fzr963/tuw4pBKGT2Z54Vbj5Bv54quhst2TekM/cS7wXoRq97TseQ4zJV+deLTt/4ZLWfa+iGIijt9aE78+E8/IGw6BM1oeLUaOPNK3/ser4DwyHNePE7vrXwdLzaOfER6Xd6kViYbZPCPf8C3c11eFHx2w9kL2XA6Oc5dFqbj5tzF/2P9tg5E5zc1CMBTkh/UpRiR1k1/kHV7CKc7HEL69E6hAkmIbp5nzPRiP67u/38te4jLyNUrsReQqEuudd+RLXoD7/tQ6CKOrAayVfd6c09RZ9cM97tmsfVPOIjxD/WmLL7GuKnwib7MaLqZcucESYXTON0HPe1CO29xJ3JBiJ/DldOfiDKOD5M0mQVqswxqg+KJlwDzUl/W4zp6s+roUjXF/P9KJZF8F/pCX9YIs4alYg7Y7bwS5PBMHcJ4+kWGt8+mawK6IW+FKth4Lb8hLeyfDaXfqO4ib8xRQ4yrFPJw5Nez1JJs6+MQDNRnCwhfyss6weWOfeyJ+Yhugye0gXgPSUgufK6hyzwgYQb6yNk/IS1q9h52GHajabVVgr4gnmG2Hjeqs+UKPu/LFRA8KjZP4QV7W6hHs3fgDcuswq0jQM780x51Gqwb3aIHPWVWOSuWlpuE8IC/rEQm7XeYNRtfCAoGqwxjsW7Ko+KAX+eSxq7IuNKDSOsW6f4RK++QNeiXD+rxVhzjUlN8KfOx+Evdk5wWhpCvsZtzsb0ljvRdvco2IFwOTfLHB8EUBXnFRccHdTN6WJjKh9fd9IsldETKjLA3uRvXXJ7I8IG8/G/5CnDbViMOXtgbPcUcyc2rb+0IWMfAJ632pFFAvNe+lgtU+ebG7fxL0XCgvcFqbZuAn7yE0qwYuI8PJcC+43KY4haYJjGGn55nEfNY45CtdRVgk8c24+SfB1a5TidnHDEquTcO/3ed96GpKoy+acf3LmQSjFbiTlzeOQ3BRKuZzvNZCtC2rT256pXWPfMaL2yh8M59Ot/vqG4FuBo2QF9mNR/F3KC9yvdf6gj2hG0jOsFWfM4UY4D9vbSSjwF3i/kcIhJ1YA+QNqm9BcnQ9qsb1m13AXxziQnSWS814xf2A70ijgCpTfCBUrJ8GyBsOeYBk+njTibOmW3w3+KAfRvjmVG09t34UoSPK0ODO1DiSAGVtoE/efhNa7HLSBO42TNko4LmrPkW4Wq3IqMaVbNSkDFX8SjcaNzmZw9IMSCsTZfIio5ZBaCdh9ipzjC8HJ9Gzkc3IT/iQh0i3e1XCmSo0lrvEdQx8qDBd8pIqK1FDWU5gtQbzAOfDFSwyIj7l4rILXsDf8DIvDKJSJdukz0WEWD+q5N2GhKCefsEeWB9vvhH8iuueFGbduN5KWAvlsyluNBrhGNTdhORBpkjesuc55JJDbzAbwIpGgdWtrL40uk8xxVpeh6kGkLa5nAmN1zsuCUU7VumRb3goDtmjlTIGdyf2fQ1+y00HGlPPiG2HvAJcYtRpZxrS2OjF5gOjUF3HiV1okBeb1Nyfge7JzFlqgTsHVmch1Oz2DCVxnff2Vwsv504PGtxFVmh1V/4jcU0okLfx283ljpu/m0Dj16mZECe9jBZ6ptnun9ZPVoYsdqHxSrmvfzyH2X6HEvMUBUW+ZPsdXEbCsodJOKkrQMT5FTSlRl5k2/Pijyurxfv7ymm80WXRC05xIhEoNZrBGkx5iee4Ex+5WTPPlSIxEQYHYV5lSA09I3Ud+qN8gnN+VjR8sab973JswfYE5TXgx/VZ/SKNY5GRM+XJzEVTCFvGl64ieugZA9fVX4osElVO1EAzGjc5U9/T6VxrukwjSz6La6V4xQkPUjBCIYxo50syNEVabtnjf/WNj1eGWdN4i0m5zdxbWGeiDMmYpSb5R9yITcgsiPclj5IydMVl+uFrwbFxb+9f2E0yPfJ/bnJuU4IxZvwoyrsq0iN/2J3clPjANCO76k6ZPCO2KlurbccWlVyoBNEzpoMuZGJMeAqSyaw6NfDnShOcE2sYHS9nrCEjZKlyJgEnHKhgkRkvyJNS7v57seoCo+3G1hQudgO3v/DaMCgPoVkWatHhXnDck6ymXeEuzGtPGwsVfOkRoXgzrgjwQXvjECrgE1fbE54Zo0VQN4x+wuRu1fEyZqutwlO+iO9cRgP8+3HkO7m3iYZ584vKAuQua7g1HnPGU9Yha1WnKYB/1p2CDd36DMwpmL/BVHDgS85/U4g542FD0bsoPyPOXXGlIY1oNFFbqHUR118iKOxi064fMLutqBLWuKPPuOc70uAztpYR05mkvVDvf1hdJBzuouJtLmEe8Kovl6pyeXX9T4TBx02gdqeuBFXRpnBzMcGAN2i4+TPmfGdeG2bD6d39kolyV77sT3GijsBtOpOEAt5tegjuhD//04vj0TotkyT4givN5RRnqh5cPGRiXUFwt+x3A7eLYv72Cpzj/3aTLBSRs82Lqs+k2GY4I9dLd/4f9YYNLmThZW6qc6825Z7GUOwiQZ0+rp0p5RmvA9fMXXXJhefcjcutzMHdXwOxAvxrPSfFXZ28vxT1CTNbAncByvG34TN3icfEF5h7rTJsrSvWGPomkFrwweNsNTBn9SC7hiSOMeLxRj/8Gu4Bn7ilGd4VSragkAz4/F315BqZNH9Iq8fHRrwFX+NAIu5032hpg3muljxMBvyH0SU0NG0+kG0z2I8+Yj5il7ou/4RZjqXw/XhL7G+rTuKYVyX6e8g0NnXTYA/IN41lvOMucRqJazNVvFlDQJ8SdSJQBezL8doavQU/gv2HDG7BN/TFO5/Cne3E3U1IOEWMZ2JzzwwYouEIqHawKdyqoDq82vBlvls+4nXIZHNvDCRjmrY9iW2snVZW07Nr4Q99DF134xF461WRuL6ZyCmkLGWlMQ+d5NmVTDQ+gyKfO7ArR/nYjifGPHGx3mGYJZVV2avc5aQ+ZxSG+VCd/2mVm1ZCXaVD4I0Qtyvy4qy3bnkR0wevTjpPMm/wFveRZD2aVEJb81h8F/S2qXzQzkTr3A1rbo3DPFbzAkaQzOxw5fx/mHZ3jqsWp7J6FPweGTpAy9Y8iefMIFw9+s0UT6KRRlO5Bl8cHF7BQKuTOQFhtLGLtOub6X83A1Ojz95el6yB1DCQ0zgi/6pVUqrt/fMhwmTm/WWlNT1P7nM1E7P7cc7tFqRdoC2QI33VBWkBfZ35kMxQ4Q2KP/OEt3b+VY191uCaynJe9ieuRks3oF0v1ZlRV6dXZfghsj4olRyUAS3kWhik29RXuF2Pw1ZSMEmUuYOkXEYe/rMOj1KXLBcgNZcMna5x9KZ9LuO2PE7e3oRG9kBv+M1eEXlovJ8VwytxPo3k8krf5aHR4UnrHMBNm2EDm9nRGJrdLsidKOHcrLZVta7TfW/KK4/WSbowqKVcY4qexHFtHKYvVhE52ZHKeEVNwR2E1fkZ92f72lsa8jOesQViM+Hktd6aSb+ROg34gOsQebOmLKXRWayHsNfM43fOwhJUxflBbw2E54lsupzFNNWyiceaULM6V4SwJwZX5zV4puRe1B01eVsD6nb8Jns+YnLPvTGMomV8DcRJs8eE3+TF5c8hhyqHz6HrbnCZGYmbwfBxgjvFf08PiDMyuQ/DcxHXfoxsGM190cGY1nFv4PxnGOZNTpW7tQzNC6h4M8wdWACZiXU4JKYpAnuVpBFOYuQ+EzfITp18sTHdWxRUBu18RgDSKYnDBOcc6+9KeoKlnpOe4F7gC2+MtKY7XaZbIOJDCr2EQJ6ZksopvODMNB+ih2nZcQHY0axh88vRni2okjMPBAGesZjHKVlEnfliJbGYYVnt9UEpuNzTdzWgbh132A+jfo4UBnnGfhPH23N+0rHGxtibvsjApm9AUgHuAV9wv7k59VhW2WAY49cHD4GQZ4r7c95nFcFTaznixOzIHOsswM6V+qp4BGuk2kMFmJJ7Kn8LoZBnrNdgZAemnZvRhmPZCUP3FhPPpOFzV4St9NBE7LrBepjRxLUSC4Y8Y7UVZ7dVxV//qwOyrm9RZ+TaKzEsAcnY1sRcI9PUCGpvPOrACEhKzE3FW3UfHp6a39UJ+n12TefeDE0hUm6k8FYvO81Mkt11KNfsIGFVlTOfjqtbq3LT4p9vGVDRxEguk/x4vxNJpHLjErX+2P8gLjmXJSLK95MdNeQAN1kCU1pMfdmOEZbIJhGqAZF8//C6cd1q+ni5OjhYm/8jtg4ODq6e5Ws2GTD7JG6GVNH/tti1pTQ1QfIhUJEiqUMZoYl8YhJBJmxS+K0zZ3Ys+0f2njlz5sZr4iUj2c8nWmvOxVEHzsL4sKTgyDOyUW9ZIUnBrf72mgt5sTkC59EexghQDNs9EBD4lDGemsxWmQOnmKRYCJE8I/W5XCgM7KqMPeU1meopagRVOJZVL2QEKiV25AlivZ/31WxEa0XIfhlPnIVKnjFc+5n33PMe0PbFfivOx+D2wqwRcsGSZ0zHRPCbuzJiQSUNz4nTRsgo5QtlGAGLSZt7Ch6Dz95SV9NNN8zmQ9ZdjOsrETJ5Ruq8toCn2NWFj1uZazp5QTIJ0pWpPGLJCF26vc7nI/fsYAqNnYAWrtGw4/vQVPDgGUn1A2n8Ix++1Fvzu6lRN+h0n9WMLojTpHCecU892EwLqciyLhGwcekfXXSCPGPke5NP3BV3e2jDIC5r/QS6YsdURkdE7Dznk4on3FWfRjtqIxlZ3PYjbAyB+qwjozvivTuOD9yVH/drp8+CWc9seCWkDqNLIu96J0vb3NWJx1tpxzJmNQk+UCltmjGjW+I1K1SpXfKXB2rJ411yPkJRlJPOjK6JSZ2t2VrkHjPHTUt2seIbEUITPzVkdE9EFo1uFWhL1cucba2lr7bajeC1VE+VMjop0npHP2ppz89dr5UYZpMm91FGeYPRWTFutTdWS8v+dE2NV9sWlZiIlAgQUYfRYTHtujteK+QVT/qaa/hby+1EajYcP0iuy+QZsW3L3UnaQK+KnavZ4LZGQUi+yuxV1oyOi9jSa0F0oVrz7LPPO2ksVU1kMhYtPFx5xlHE/AZi1vlklBZC9WJG2WvmcmdS+xBi9s+j0sxvIvLqK+8kafyWl3G0hSY6v3jMikYc2OemzO8jUs9B2x5qPHQjfBZ1l0ixXpdQo5FSJzK/lYhtvDtveKZh+FkXm1G930lr7YlD3csK11kzv5uIzUvUWx1eoNSgwqeM21uO2mkvli14h5xmorpUTsT8liKtNON6aFyG5ux7qWs8aETeioxLD37NwdRw3oP5jaVk28m7r71KRp42dfaHVA4bRvT8asRVPYMaM55yOboCazC/uRg6+w5YdPjWmwzYbftL8Nmd00a1n8Ql8KMwaEY1sqOvNesJp3TCUF9GL18vew5etZr1nLLlTPgv+ReGX/Gf1aZR5VJ/R9kYD+XmwHu+llzFbWm1jSE5nIYR20ZP/V81ydDC2rFUra49/1y9I+D+/fsh6fn5+UnB9+9f2rh69YyePXs2KeNoY/ZvFTX5Cm4qQn7ChW4W+GY9kcSi9YF4jleUhIFyPXAMk+DcdK7K3pdJle2w2qsYlmrqzznOUP2+j1SPD0dsFiRznXzVpyOT/Jw4zr/UsemkIAyDRNI4Az08PLFbhRPs9f7kgs4uyHd8kwo9552IwbmLJk6w0KPDvhVux7rhF8bc3T2isS38+5w6LDodFIdnf/wyxFAPjoC1/C9M/48iPeH95UWN7AykEvFPD36xWCo1dG03+3JMUi7m+9QJg4302IioeXNSSNiAFe+v7Zjeu36Fsk72X8X0P2JpZ2/vUMatQu0Ri84+JmREftxcr9yRWvXjP5Az/2dE3jzxVRb+R9YfPXHickhYOktOgvz0xIiJyVBepHHBRWI01PMiKMadPwkE/KU6elpERdoiRi0A7gUHPMV6WISl/Lkc3oP/OMtMD4q8uKxO5Tn4Fz30pnoqYjE6ic/cFRf1Xllqh33Xp/wFn73dQ6JHRA19jfN8LcWXNruYSA+IoljPecdH7jnPaurZ0Ba/O7yrwqh6t8pRD4a+eKyN5Rf4wpud9Jc5TYioeNcHfKq5nLu6vF6105AYlFml4otFTx3ZzVxPRINS92IaH9grY9e76GFoVmwmPNT+BS/lWFtjPQqN3+2rLNOy/y7v5ihrPQdtiFmbC1pspaWKmOSlj73RkkgcBodoSctXq1Z76oPttClGvZ5pQdUriD9WUT/32ha7cQEpGmYfvq2V/ibHhz2/zMgLGlTzFSFrmuoVer6wdxt2S0MBO8qQWbVN9DPOH5GVbLE3k/6er04Y7Wysd8byTUzGBMbRdONlRB1ur1fnecrez/9eJiV/XNSVyRX16bH8FQOvsXvfky/IlHF9YStb/ezyW8R2vlMvEQ3SzXm2vrWnPjdWENYd+wqD9yWQ0ffUt6bUddbnwgtKKswLiE7C0PhUuXEhu3vq93ghirRsn9U3whI5eHUU8c+vH1rcxEY/h8IVp8YDpq08GBgOX3IlK/T85lm9ajnqFXkdOPdLVKzTbvjSU4GJvy6G8fbF2W0Lx7atXcZSnxWpS1u/qa1j2XIDBgyY6L9x26WgoJB/+i/kRgR9lTMbN84f4FeutItdMVOZTn31/wMiPt9mZffdjgAAACV0RVh0ZGF0ZTpjcmVhdGUAMjAyMS0wMi0xNlQxNjo0Mjo1NyswMDowML+2C5oAAAAldEVYdGRhdGU6bW9kaWZ5ADIwMjEtMDItMTZUMTY6NDI6NTcrMDA6MDDO67MmAAAAAElFTkSuQmCC;textShadow=0;imageBackground=#FFD966;imageBorder=#B19545;" vertex="1" parent="1">
          <mxGeometry x="-225" y="-120" width="90" height="91.25" as="geometry" />
        </mxCell>
        <mxCell id="S9jC91QOcoUOu3PD02v--42" value="&lt;br&gt;&lt;font style=&quot;forced-color-adjust: none; font-size: 10px;&quot;&gt;Requisitos y normativa tipos de autorizacion&lt;/font&gt;" style="text;html=1;align=center;verticalAlign=middle;whiteSpace=wrap;rounded=0;" vertex="1" parent="1">
          <mxGeometry x="-180" y="350" width="150" height="30" as="geometry" />
        </mxCell>
        <mxCell id="S9jC91QOcoUOu3PD02v--45" value="" style="sketch=0;outlineConnect=0;fontColor=#232F3E;gradientColor=none;fillColor=#232F3D;strokeColor=none;dashed=0;verticalLabelPosition=bottom;verticalAlign=top;align=center;html=1;fontSize=12;fontStyle=0;aspect=fixed;pointerEvents=1;shape=mxgraph.aws4.user;" vertex="1" parent="1">
          <mxGeometry x="520" y="240" width="40" height="40" as="geometry" />
        </mxCell>
        <mxCell id="S9jC91QOcoUOu3PD02v--50" style="edgeStyle=orthogonalEdgeStyle;rounded=0;orthogonalLoop=1;jettySize=auto;html=1;" edge="1" parent="1" source="S9jC91QOcoUOu3PD02v--48" target="S9jC91QOcoUOu3PD02v--45">
          <mxGeometry relative="1" as="geometry" />
        </mxCell>
        <mxCell id="S9jC91QOcoUOu3PD02v--51" value="&amp;nbsp;RESPUESTA&amp;nbsp;" style="edgeLabel;html=1;align=center;verticalAlign=middle;resizable=0;points=[];" connectable="0" vertex="1" parent="S9jC91QOcoUOu3PD02v--50">
          <mxGeometry x="0.1666" y="1" relative="1" as="geometry">
            <mxPoint x="-13" y="2" as="offset" />
          </mxGeometry>
        </mxCell>
        <mxCell id="S9jC91QOcoUOu3PD02v--48" value="Text to speech" style="rounded=1;whiteSpace=wrap;html=1;" vertex="1" parent="1">
          <mxGeometry x="270" y="241" width="120" height="40" as="geometry" />
        </mxCell>
        <mxCell id="xGI-26zCP8r_t2PSa3KI-1" value="" style="shape=image;verticalLabelPosition=bottom;labelBackgroundColor=default;verticalAlign=top;aspect=fixed;imageAspect=0;image=data:image/png,iVBORw0KGgoAAAANSUhEUgAAAfkAAAIACAMAAAC2HeWaAAAABGdBTUEAALGPC/xhBQAAACBjSFJNAAB6JgAAgIQAAPoAAACA6AAAdTAAAOpgAAA6mAAAF3CculE8AAAAB3RJTUUH5QIQECo5jMzDPgAAAwBQTFRFAAAAAAAAAAAAAAAAAAAAAAAAAAAAAAAAAAAAAAAAAAAAAAAAAAAAAAAAAAAAAAAAAAAAAAAAAAAAAAAAAAAAAAAAAAAAAAAAAAAAAAAAAAAAAAAAAAAAAAAAAAAAAAAAAAAAAAAAAAAAAAAAAAAAAAAAAAAAAAAAAAAAAAAAAAAAAAAAAAAAAAAAAAAAAAAAAAAAAAAAAAAAAAAAAAAAAAAAAAAAAAAAAAAAAAAAAAAAAAAAAAAAAAAAAAAAAAAAAAAAAAAAAAAAAAAAAAAAAAAAAAAAAAAAAAAAAAAAAAAAAAAAAAAAAAAAAAAAAAAAAAAAAAAAAAAAAAAAAAAAAAAAAAAAAAAAAAAAAAAAAAAAAAAAAAAAAAAAAAAAAAAAAAAAAAAAAAAAAAAAAAAAAAAAAAAAAAAAAAAAAAAAAAAAAAAAAAAAAAAAAAAAAAAAAAAAAAAAAAAAAAAAAAAAAAAAAAAAAAAAAAAAAAAAAAAAAAAAAAAAAAAAAAAAAAAAAAAAAAAAAAAAAAAAAAAAAAAAAAAAAAAAAAAAAAAAAAAAAAAAAAAAAAAAAAAAAAAAAAAAAAAAAAAAAAAAAAAAAAAAAAAAAAAAAAAAAAAAAAAAAAAAAAAAAAAAAAAAAAAAAAAAAAAAAAAAAAAAAAAAAAAAAAAAAAAAAAAAAAAAAAAAAAAAAAAAAAAAAAAAAAAAAAAAAAAAAAAAAAAAAAAAAAAAAAAAAAAAAAAAAAAAAAAAAAAAAAAAAAAAAAAAAAAAAAAAAAAAAAAAAAAAAAAAAAAAAAAAAAAAAAAAAAAAAAAAAAAAAAAAAAAAAAAAAAAAAAAAAAAAAAAAAAAAAAAAAAAAAAAAAAAAAAAAAAAAAAAAAAAAAAAAAAAAAAAAAAAAAAAAAAAAAAAAAAAAAAAAAAAAAAAAAAAAAAAAAAAAAAAAAAAAAAAAAAAAAAAAAAAAAAAAAAAAAAAAAAAAAAAAAAAAAAAAAAAAAAAAAAAAAAAAAAAAAAAAAAAAAAAAAAAAszD0iAAAAP90Uk5TAAECAwQFBgcICQoLDA0ODxAREhMUFRYXGBkaGxwdHh8gISIjJCUmJygpKissLS4vMDEyMzQ1Njc4OTo7PD0+P0BBQkNERUZHSElKS0xNTk9QUVJTVFVWV1hZWltcXV5fYGFiY2RlZmdoaWprbG1ub3BxcnN0dXZ3eHl6e3x9fn+AgYKDhIWGh4iJiouMjY6PkJGSk5SVlpeYmZqbnJ2en6ChoqOkpaanqKmqq6ytrq+wsbKztLW2t7i5uru8vb6/wMHCw8TFxsfIycrLzM3Oz9DR0tPU1dbX2Nna29zd3t/g4eLj5OXm5+jp6uvs7e7v8PHy8/T19vf4+fr7/P3+6wjZNQAAAAFiS0dE/6UH8sUAAEKDSURBVHja7Z11QFRL+/jPBrs0iJSSKhIqit1iYXd3t147rt15Lezu7i5sxUBRUSkRFRREumvj/Lz3fb+/+2LNzJmZ3XPWff5mz5kzH2bmmScZRpdEbFKshEvpcg16j9qw717QV3mnYP+RD0FBd7avm9G/e2WvMiWLm0oZvegOdMvStdr2WbDtSkgU+ytRfLy1b9HwdvV9nIz0kyZ4kdjX771g8/nXWSysZEc9PL5ieHMPA/3kCVfkFYdtuvryM4ssqrTI+ydndCwr18+hAMV+4JZH71MLWc6SlRAdMK+UfiKFJMZ2Vcc/VrMkRBm1vm1ZK4l+TgUghmX9Zl5IYwnKp119q1mK9DPLb7FsueBSAkta8p5v6u+lV/l4LGVGno8qZKlIwr217YvpZ5iXIq3u/yqVpSf5CQ+mmuinmXenu1P/ELWapSzquBWVi4n1s80jZd5nbLCC1Yh82d7JQa/q80QMqi99nMdqTDIOjSyjZ88HQ53vmieFrCZFnRIw3FQ/8doWx9Uf81hNizrlViP91Gt1vTvOzVSzWpGCm22t9bqelkRSesRTBas1yT7aSu/N1YqYjTifxmpVPs2roA/k0LzU3JfCalvybw3T2/U0LFbjXilY7Ysq+byPHoYmLTeNb6pYfohaOaeEfsvXlGbnMTOF5Y8o7rY110PRiGbX6Uo+yyt5t8BZj4W+2M99p2J5Jtnn6+nB0JZSlzNY/okqbIg+WpOmiMy6v1GzvJT845X1ih491a7s0i8sb+VpBz16WuJ7Lo/lsXwcYqFnREXavmD5LQlLXfSUyIt8cBTLd8k67qEHRVq3K7EsjeW/qMOby/SwiEr5rYWsICSlj7GeFkGperWAFYjEDdfreeSk6W3CjvWwrxJw8qsEvAoLe5tDNjJ7to2eGCFp+FhJyLkSfWvvqkGtfDzdvoqj/VdxLOPm5u7t03PE4r2BpP4B0uea6ZmREGmLV7h2O1V2cuzjdYOrywykEonoB8mRIrFYIjV0bT9l99tPadgahWpvcT02AuDbvsJc6B+Djs3uXBbydTKfwZsvhyRiOoUO6vPuscWg11ssc3rYqUXdvQ3R3mlea5D/zUSs5Nt97np0mOAHRGMASN0/uJ4LJ2u6SbnWiwLTMfy2e0vr4WFt9X2iOe+7eQ8mVrXFcKKYutZeGs8Zfe4O/VmPA745xzNenRk7t5wBdiaERDbkWnwuN/1SteLflGsjMxuHMu169Bi4dPXq7dfu3XuRmf9Vkp7eu3dr3+rVPXo0KO1oa2msT9b7V1pwA6+KuzaJlIolr7X4AUcP4Wzrr/+7Nq6VG7WZtfZy2C9NUfkRV7fP7duqtreTsb4sy1dxD+U04/E7epUgOYxyc29yOvEz/uo8cs6OM08TYK0R+W8eHl8+vFkZw98dvNdpLvOdtKcD6RPWoNzQ61yCPrNis9BPioyIm/tnd/ut9UOP0xxMKnnH/GwoJDrKnHqHshoTVXZC+O0l9X5Xr1+JbchOGlXquWpSSuek2GJkuEYjgpSFsWv8HMx/vwgv01nZyHfoW72pJrd6rArRdBJHxOYBlW1+s2TtvshV7cIWlqN8L5LV2RfPalqCdwz1/p1K8VVFNd0VHK2vgQom1r3vKTXOPiVwY73fJpq/5CXE2YkcUlIz1mT3DdkaR88Wvr/Y8/dI1y6+F027yzjoqbHDUOoboYW0PnVh/OryxXRe3TObhWY5iZqo0c3QefNnVhuSfainq25beA06IR3y2ZfbaHiAxUaGaiepM/XMkBK6TN7tHpLNbpWXxheCUdN7rHYk6VQ/a90lvwmlDkrqBCst+DjEpY5rCb0q8UpXHS3JJeqEcG9SRjfU0slnOU9bOX7qwqA2xXXxvPcOQwh/CKippVFa+h3MZrUmeWda6V6TjZIH4C906Ts9tfP98hp/xWo3nyN6eXkdAy8fBR/5mLNJS+VpHKY/0nrKT97d/roV1V89GN6jvdZWO2PsfDedD4U7EvZU0CHwVhug5zRzojb8GCKTmicKeFKwRfVxioPO+PHaQxvvEiZpo6eMQeUlCSyP5EYLSx1Z8g9gP/nzFG14MOwnPVKwvJKE+WV1YtlPgrbfTLbS/OiMu53MYfkmGaca6YD3vir0VX6r5vVaccW9n3lXgvEfD+4fggdvcQjSepe3V+PBiQZ2C1P5yP0f9odchO2+lXSPgQxL13jiksR5wFOWv6IK6iDomsvOJyH/xS96atpU2/lkOstriZkq4Cw+SbcUyH/wehrWZitvf8/yXZI2CTday/YU3Dcm9tCsLltiSogQqjPlHRVszEYHOPWuYKxGHZTWnYMFUo5N9bihMJNyLB7Cgd+t0UHVPpvHCkbC+wiyc+ZQuK+7psECNPIaSz+wQpLY6QJEbx0I9W0RrTV3c7Wb+oT4gs+LiIi4eebM/uV/y+pDZy5HRGQSfHz6CuEF6fVOgvmyrJmaC0Fr+YBood34gPV969es5uXl5eroaGf+t1jYOzp7eVWp2WXGvjuEAj2y/IV2u7O5COP5VJ3VkP4qMq5+IouIL1adkxofeX5Se1cTQ9nPLqNiqdzIxKb1tIvvkrJwHUJ5m0oKK0yrA9SNObS+ZkYjrbiYiC9W8eXF2T/bOEEfUMa+o/c8iMbL4CnY6Cgk8Ob+MFe6giGaGY3jiPtE7GrnVw2sgnzRcmq54MRrHPgFW60ERL5OOMw3XdVI/XCzzscJmGrTLs1qVYpbvRuJQ/3BGzGshoVrhKPmGU6GWfJpDTQxlgr74vDzpD8sbuJshHHeiq18xj7kfLHIXCsYNa8MTA0axRz64VcGTtMScbkXxJ9qbmmArWZJjWsvi8/m5hjO3SgUNa8PzOc8rkzdZ+Q88DGubp31al0VYkbUEpOuJXK6YRSsEciqvwLxMcljaFulZV1O4jY6zrg+m2zSj8OQfZxuGSkzBGHDt4eIblOepZ1VUW0ltqn2yhBP4hNu0/VAMhcNs5sQyE+A+JIvXeg65W2mhuCaat/NdKHhPxbbtzrJYWjhnfkPXgYTan2Wpr1eZNb2OWb6REH4dGdacQNiww4vclCHp35Sl/fBec0hKo3l16E4AIsGuzCXuzLGn26LQovpj5EDvu/V4HkkvnQNhMXqEsWbXLXl7zBN9IkHqW+tEu9l71Btx8d4XjzXFaIjWWZzaq+3nPYYM9iqIGBACQ1cn82a30JFv5PH2I2bzb2ZBf6GI7Q6wMmaBeCaapNGu2ooMNBzEWJNrty+fGRuYGbrPfpcYk4hxE6b1YtO7J1RlcMZeBu9MmFbOc0pUrJ6l9FO+3e+fDvqLd1qD94WAX9PptIISuaOnRebcKqZZrsQ2C39ghSVecOTT9jllfr4X/uEYB7PnUnBICV2GXod1/1+f4C9xidvBFK/ztx1/OmUatVh3X1EI2l4EwoKRreTiZgafeT8ylqYP4O6x3IRBvllAE/MuF7jn35EjV9X7CXvpHPZ/QnTN5Ozs5apVhxiYoflWQjjfKP9SkoioxIdTiZyiDb5QvqyLC057ROeL1ad86CuodYcofK+CHqp+oGJdrnLnBvNi+A2zc8IFwRx7BeEu96DJmo3d7VXCILjfrlW9/uyI09xLjuwguxNrsWxLEzNLmKRt5ZLUBo0QuilFddUewMtOex6KveJrk7SCOqzMgo39mJHY+33kxNXvgStLilOOGnr8j7oRhLGTMcQ3KzMp73IxeOueNSdF/ckcbnb0GNO+0MbXjtpsYFP87CuT0uITZaZX2Q+3k2u8O1YvtQaFtkdgvY3PK+jcW1U4tzvDm7SSD1CM2XuuxezspUieosTwx+x3g6dkrdD0yH4dj1P4WpT7H1CKSPVl2Ee8OqEw6351TDWeUsGrG6i2dgsWctTcfgpC0uIJAaXHIYdVXulnxPf3B+uJ2HVvFBNlsp0Wf6WQIpSQU8C023Y8mIS5jjezy7Fw4KDXtBn6TyNjcms43MiVUbC8cOw5FX3p+CVslMl7fLiZRSzyA62NHi0j4Y2es91hIoOnHbFHYr7RNz1nnq+CW+j1+u/hPunzluvkaqh9gNJtXZSrcArlSByGH4LM9gq5+54C4a3YtAasjv629YauMpV3f6ZVAX4lKF4Y+lxPBlTo4+e683r6GWToR/hrqSb6CdcDXtGrrzM64Y4Iym1CTsvdltNvvcMMfsLzkzxoSHl3afi6VyCLR9uuXC3Hpac8g7vJqfOedDEiP9JqcXOw33NFqpVMs17RrAERX2Us2pl3+sR5stzn4wSRsMIZ7iEwDRfimMoPv0jSfBs/kqu/4FNd+EeOdGLKzMCkV5wYZkX6d1Q7LelEgXPpg7npmNWWhmBecAn720jnFYR5ouhPJCFfrQGUPkk6dLAnzgVwzKeGIrrm7nXxU5A7WFEpeAKxJ+n43eQd3ipJAyefYuu4IlMWt3G3OgLYsfaCqvvq6hRCIxa/aU7DX3VZsJnlriEoN8tqm/DLF1Z+G6DJyM4mQjjtlOdpdDb0dE/hTx49jKyrRZbo0/d10qIFaNLQF3tYrsQf3GVg1SqwO9BvVv8+QnzjXcGlmQEKbVhMkMV/qTvqfVu0Cn//yfaMKxWYt4tYmZ6CrWxu2QezAc+qET0peL6j5VUwLNolzpjPK+cOnFrBRkjWHGFKTqjGETUCdHwOUtJkKxOBl1icN6VfLMZI2SR9oJRbc/ZEXxlrRBa4NFC7UvjKHe59/6g09PcxLNem4HD2/lWoB4E6XAQwlWfVYvcCxvcowaeRaqBNxzHVDujIhVfrFnLrTdCPuQoYl/fOdyFcnF+cS8Y9XY5OeXuLsXuzEjqVjD3yO6TlamkHVr2Ovv+Xw3o47UxdNPtLQ9CoIghVDBcXA9DuVMCdyekQ4djrJ06935LGvmRIuNmj4pWLFblRg00o2kUbgzhtFN30rpyl/r0dDRJ8is5mmofjaFyApvX3v6j1531s6Lo8YeZgytEPFE1X3B1ibw7PcGj/C2S5C9x2nbebKBSwlBaeVH0j/eg+FX15dTIV8qGsONV06Zy93xxSwcxQ5b8ay5hfrtbU0mEt5wY+NMs5/xns+yooT8McYtZjP8an2vclLsXI8r/E9wGJB+BYsjgkNdxu4c9DZOdrMmlX9oSM290pmUxag5Oq1cH4FYNF7kc5AI+9+WwEv89aYDknyAMpyJqjfLC+BnmNG5ycu+9oMQOderhKnS2fLtjYG/tm5aYL7H6i0McRlrwiH99BkTJd01EO+A/bPCkoWYblJ4P5a1OW1iWSkn0jmDPRd40zI1uFHoke+aNKf8baqFF8tkHWtPodil2HnAVdgh3hzhT+Ndzuwh+8068yPsG6LGWr8d7FtletUZeETiaiqnWqNPRL/Ah5ylHO5H/75NOB4fk3a2Apd09QOWef6DiN2Fg2iL/cWZ5KtGVzttikDQfRcw28i1aGrwC/8vhHPROxxEd8gXBPb4LCtAKeVXWnrI0tCuJzfj3yEEKhe/H2xC+XZicAO466incIzGt/RGDHKOW/eC/Wwvk1anX21NRqkv05FaaQfG4J+GDpx9Y/zrJ+ZXG49G0u7xLLX50gdU8+YI746k4zIyaHuLcRj5zV1Oix73LS+Ar4924Prwj2t054a8ft9XQOPmYWZVoWG4kFZdG4ngkIxd6kRzWBvAbuR701q+QPuztwJ84KTRMPutoQyotjc0nPcVM7MgOGkMw3rc++IX+HI2TW1CSZRUBFX+mSGuUfPbdTsUoeMlExr6v8JOH1Tk3GhCroCwFR2WFcnqXdBDKIZ+0++frTIPk88JH0siLFZnV2ZXDEpEs/yqkdqQ94LdxquvnfRc+BEIVOvYXhQc0Rl71dl01Gvs8U2VhJEtKlK//LEtmVN3BL+vN4bEWi7PhN7EX7X+ltmqKfNbuNlR8sfYjA4mmGeRe7UfkuPcCxyBziMYTt4qF/5SXzX7pjdQQ+Wcd7Wn4Zgybn0lmCcvn/dUJuA9tjgNfdB79qQ7noNUZ1QvnX19WNEFenTDDgcZNzsB7xxcK6SWKzyscsdnL/gAyeoW8FiRz4feuANCxpQnymRNp+OBlpf9IYilJ2MCSuFtUa2CO3TtklaIqdIpy5l4vMQ/IJw6goNGXHHS9gKUmOYfbY9YyqvYM9I64xoiPtDoBveJ3gtvhCpV8l8OJLE1RfdiMdxVxAZbQSB2B+Mix0E1cb0EUJxcmeRf/WCVLWQpeT8cxP8iWAa2Gs9GeWPOJGla5g6lKL0DyEpuxEQWsBiQ3sK05d6PeCNChrD6M9PBi6yAdkap7UI1khUfetusDVlNScLQu5/KbjcNAT79sjXKVbw0ZgKV61kSii+TNGm7LYzUo7+dV4hidXQ74D/rIG2XJb4e13LWBC3oRFnmJ97IwlDbKN/5ci1szKv/2OG45mFbAhKMIlNp4TSFLkST1g/xPFRR547EvshGgfZjiJbVseQpzj1AnX27DZbDiAyDfSnwvhP95yM4ZSuie4cIhLzJsGojAXZW9xUP+VYUSWwx4hWnZV6Vvc+UQLroA5EHMnwr/sHaQQ70I/UTBkDetvxOhyJ465eK//UCNl7/Jx9zzY6eWRbZDDgPuzwuhDYXFIFMInnjrGnlpeaReyvm3itRdMaiz+QNeFx228Hp/1L6YLYEqxiYLcv9F/0hUF5mOkbcbjmSqjZla4ZuLTbHOx3GXfequxmhRmpWAkZJ7YP+ZylyHMuKkz0DwMAuBvKzZKYS0GTZ7u+/39xqJ8wjcIlKKsBVIJYCLAyNGDkIGIYvGQLVDVBxE8TXwn7xBif2pKDe5++1Mf2gbk7mvjMfb8tV54cOM4e1uImBfoxtecE9yhnPVPCnF6BB5g1LTUYqp5oSO/EXuSuVj2BWhrzaGr7TyGPSw2+Xh7odtoYZdiNb+lOfk7QYGIBzwijerf52oaNjnGmYVbjZhXT1YLQoYhfm0Kpxivw1qZEdkukNe1vQoSrBV8i5g3RVxmQkvML18imdznQmRh2xlVTEeym5VndEZ8p7rkKJqAzuUgLgfG1Valou57LOvd4XSoVcRIr8IRr3NGWuoI+TF1mPCUDb699MdIWP9jGufz8PLy1AlH60MsbWOJUPeAiYGRXEINXyfp+TF1i2foLB4uxklqM20750s3Nv9CnClldFkyMNUlFWHI6fp8ZO8abMtKHmxaedQ2xW7zgjFLRj7aJCLWBPkTW/DqDjDTHSCfKVFEQg374I7ozj0wGi8Ng532Z8EVFohQ741zJXuLHp6CA/JWwx5gbIXx83w5BI7IbLqeB7Tf6v6sMeDOnmxP4S2o2zACJ68SN74ajrC5OceKMO17Ii0WL9oTP+t4t2fdhK65MvDxJ5xSNfhG3mjmjsQ1rs69XJrrEqWDkvfYcZyKh72LUGVfH8IzT6tudDJS8pPeYfiOb2LXaxe3nAnbhffzH2NfnLITiFA3mIdhMZzyFrg5K2HXEdxpb5d4MPgS/FOF3BDuCOWVvjhlr+BAPmK9yEMyp0kwibf6DyKLzb9gB+hHhhu48Ix0ec8Gm/GxXr7DJjGI+oAPvzU+zlVnOILeanTpmSUm9zDDhbE0rLlbv7JeEY9dda92nIRMnmwr85yE/jlHJte8oO8pMxkhJIAbG7kVMJ1lspdScIM18rZVu3buAAC5F3BHQNU50oIl7x1n2sI1yvlG//KxNPxzUZcwzToKl/NKFf0mafxybcDz0vGREao5I2a7UTqpFxwyJUhL2LPqbjNHnMC+hRpx/Mcn/xO8FvfeQiUvNh9VRSaCV31+Wh9GqUYjHzWp2Oyjz9Y+9+RuQA7fJwCxfWJ3oPfuV8iSPJiw7Fh6DZURdJyWxrlV8xbXMnGU/UUn1aV/L+ReePH3rpDHDK+jADJi206Xuc4xR+GOtGokm7W5yFuwuaHfv8tCgSuCLoSZHgeAn7da0aA5A39tnKvdJNzsZs1BfRMqZWhmOFaeac6WP+t5QOzIxQzQIPZB37bOAGSd1sahuUjj91RhwZ6edPNCZg+vHdbGn190DxQFmAaqMG7BThFIKa84MgXG3YHd19VvJjtRAG92KbNLcyRFYRPs2N2gfaO2K6AkdQHB5wfsBYYecOGAZnYNYpZdU5Qb3MKJZQl1qM+YYbsZN9pfg70N6GNAOOYDEytUQ6RCoq8UbldxApfXKxNo4wy47QyCpN9JvATQTUzZHuBGseHRoyAyEvLTYpiyUnCsqqGFNAb+O6jVmjxv3IDcFaVAkfgXXITEHnr4TdziE5g/uNpzjSWvdWQa3RL8pwFOBvrgnui+JsKh3ytS1+IT2F6YFsay15adtIbFT3wqv2A9/cF3jGSBosEQl7itvYjlblM2FeZhkHXsPz6fGrss6YD3j4JuOU8qcwIgrykzOT3CDOT9xFF/Y+fX56GQZdpejqJEvsEQOElw7+Au8YJC0GQt++CZKqNXtt61kOUHwT3puHD+6qXBNA57t8C/DUOR4BXxzmMAMib+m1HSV7PPtTGmDGoshHFnJZ2vJ0pjeO+3IwoGuQfARwPngHAXaOtAMi7r3qDkh8ZPNjhP5a+dmcRgjKV73Z40Vj2hr7bUsmT3wV4awOgl/d9Bb6THyQf9AZhx1R9me38f+tBYtU3HMGkUhg/xJJC2xSReZvAfNLkxwJe2haYWviU4Tn51D23EeAp4w4UPa9NFrxF2C5UT7vaUWmZMzA8lyx5gAVPOhQclMF38kim+OSznb69m0tqbI9F0K/TD7ag0gez7OowBUHwOQAThDlQtWdn6xL5WyNL/WDFFu94EmWzfbOwIg30xk12p5Aj/xh0pzgAfER73SEfs8zrJ3lyrkNeoqynwNHFabAv0fohMfIbAO9yAQeEuugIeXXOqRo/t2QbuC9GKGenzrzpR8OoJ3aeEE2mj4oadCMrHQ28+TK6QT7zdgtAXmz5PV9QzGkbfExorHv39UTYfygDeE854COu6wT53KCZEKU7+19CuFer3vzpRWPdy/1OJuCTP2iNTX67DpBXRy+uBhNKKy4z8SHCDS/7+igqzXBLDL2FbdAdC0r8rwZ8xHQdIL+vESwhY+/5KPp10glfGQX0Mq8pn/DAf2wCekcv4DMGCp284nVnSwQ3s0m9EwjpEMoPq0vRMOwYee4uwAkkvAbMiRoAfEZDYZPPfzUJtQ+oUefbGQhviB7jQIO9tOnVVM7slcuAtfKBdRTZ8oImH7u2EodRO0x5hmJOO9fBjor/dswdrhWWEvoAn74G9IxUdwGTTz3eneMxXGdNNPxr1PE7G9A47pkKSyK4kYeocr0R9IyIUoIlr3g0wInrPiyy9DuE4EEpDF1Lxahn0ngvp/zbW67AR28GPSPUVaDkVWkz7XGSIsVW7T4imFTyn3UypZCUIbZsE8TBsJO5EJglEKSj5BXxu8pjT7vF7HAER47iil8xGuuemfYa3X9bMNscl/wDRyGSTz7ZiYSNRVJ1/XuU2/2GKjSisyU+a9ENukn9cMkfsxEe+cIHw0nlRhi3O4LSsPTB5NI0Vr1Fm0PIITuRlX8/8p8WkgyOdxz0CH7BqdOu9jSiwd5pwhtU9JedfzPy2UdrmxBVtQxc5iGUs1OlnPWkEZhvWHV/Jhr5/G2WvxP5tCeNKEy766HPCAdt+nxPOYVByDo9RDPsZC4w/23I5z2dYEtFvTbqdBZh3SufjnChMYqS+5KR0H/oLf9NyMcsqW7AUBLnYbcQ5jz9THsaYRvWE0KQlPyXdTHIP3ISCvn84/XNGHoiKTcfpYLq+600cjCN/a4g7fiBRrpvyVE+6WLD0BXj2sey4Lf8gvDpVuSNehLbpSirXjVfpOPkC19NKc7QF1krlFYo7Ot2NhT8t0PjEZy3n1v9bARXgJdjN/6TV77fXp7RjBSbEoRg2cnZ08yC+BDkXYPhI8ZUAW5cfXUC8M9nn+xkzGhKDKquRCjKoYxeXYn4EAwb3YSPHshcUZwr+Wa8Jx/VVsxoUMo9QNGx8p9OIL7sJd5HESLyOv5Y05wE/GV/3pMPbahJ8IwryvXu71V3tSFxw471VeizXh34YysuOA5vhZ48Hvmv6/5AddLHke0+eFVz+w+NHJ2Av9utJ49LnmXjpnkRDteyWQhtz8v1+9EDKgN/d1NPHp88m3dtGGG7st1C6ADhaz96tRfQ7/tKT54AeVaVcLI52XFYz4V9d9qYH/y8VCTQFqUnT4L81xtewlpnokY90/2Qap76wQ+iNEqCK4nZ6MkTIf+382ysK0nfvS1seLBi1fcejeK7gT9roSdPijxbeKM7SStz2VOQ/puoFt/9x5kuBv5qiZ48MfIsm7ypMbkoTUkdWGve902FJYOBPwrQkydInlWELXUjZnOU1IMsopjxfYvRjkDlPry4njxB8iyb82woOfRtIMt8vPxOuWwAzB+Lb6YnD0MepdLK5caWpNT8KZBa3uBvf1gF6KFPH6cnD0E+9/E7hPzbxDX1CBnzrffA1dd4+K3jqPR54MG0TU8egnzi0E6HEFz3ildzHYgMR1QpACpKJ7Hbt9c6cFPaK7Z68hDku0qc+qIU1cu93JdIlKZB+0iY1ymPf4NRMhu4RwVX15OHIc8wUvfFX1CSMg5UImHYMRyfBuWo/3bR94oHOpj/EOnJQ5H/KhUPxKOs+zWuBG73RgehXnb8mzDq6sHAn2w015OHJc/IO15HqbLzYkQp/OjsMu/hTvqib7K8APzJ/Yp68tDkGcZp6hOEoPi0Ez3xj/tRULrlnm8sMxuBw8zsItaThyfPGFVZjlDFUhmz1xt3TPb7oBb9Nyt4OLji5ypzPpOP7cIz8gxjXjEAISheETEdM0tEXO8FzItmFf1V7Y/AX7wqzWfyP+s/r0XyX4/79ndQmqKF9CqBNSjp5CyIt3wpmmxlDi50zraiRv65jpL/+nezghCMevmnGmDVdyl7HcZ63KHojw6Bf7GGGvkka10lzxjU2IBSvTZqWTWcTOChMGW6Txd9wzDwL95yLQHiehr06B1uukqeYaw6nkYw6OYGT8GopWl1CeIVsTWK3gYhzE1+HMdjuxe4zT0dYq6r5BmJbZ93CMs+I7AW93HVhQkBXl70N0Hgn9zm6FmSLoZQc4JaWeoo+a9isiwW4XafucSZs0F3F8TzAz2L/GQC+BfxXEOGR8DYlHP9a5voKnlGWns3QoPs/DNNubpva0IUkEocXMQ0Uz0HHDq4jaN9uQJUNyZl6DyIVs/CJM8wll3PIXTKeN2V48AsN0I8fUcRO54jBJ2Quhx9iP5wNfyyH4410lXyX1Wp0aHw6N9yNOmJm0OY7wOL2PFM5kEEj/3J0bHQGrZFdNrF6jpLnpF7r4bvknKFY8yG1Tbws9NbF/lJGwjv0h2uJRSWQdszMrdXNdJR8n+fe0dTII97xX5LbkNrD3GRWF/k2RXuQmzHAzgueqML8DV9oma4SXWVPGM05Hoa5H7P0WZqcww81c+KpNObrYX4b7zG1bLsE4hwpb0w1F5XyTOSsn++gNoAC//iWN9tAPhIya5X5Bd9IbyK+f04TpVBwwCEmsGJB5rLdZT8V42qxjKoSFmIbiQ/XvQQgYDLivyi1G2I4URzjSCQum5F6QwSv95WV8kzjHmzqzBzMJjj0boE/OzIor+YC2NfnsE9XrB9DEqB9phJLlIdJf/1uO/3BLwOFptyG5wdhOGgbJFfVHwLASSiMvf58tmC0pch/1oPe10lzzBOy4Gn/X5rjqOD2FGKZs4YHIGx968z5T5hZm0PIbT7Zb/sb2Kgq+QZOdDkcotrGkYPsJPgZNFftIDB8Qar4IdTlycI6NnQ5eV0lTzYR/aWaxSUG1jHC7VB/Df828SwwQpnzsQei+IQ0OeGjDL5XckXeHE13m8AzuvHOkV/Mh7GwJTREy8pROS1HcFvxapD6v1vzulvRJ5z0VlxL6CO922KrDdU5NADL8x5k7e6hHLcZ25sYKonjyLg5OjCTUWXr+UmKBTbsJN/HSfcz4NHrwxb4q0njyDFd4Ctsfbf+Pg+QB2++MHt8kqzUI77/IeDzfXk4bf7ScBoi+ffxHxZbYcCEVwGf/JMKh9BQM+mnK8r1ZOHlYbAUID4Xt/8pDlcHvZJawLTJ2t1FyURIW93JUM9eUjbPbBbBbvwGz3dZCdUqGDKBCJdGG0nP0RIRGA/TfQy0JOHkh1AY+nOb4teNYI7fp/5kink6LM6CuW4Dxg0LklPHkJGA6MAzn9rJ5Lvh1O3L5YiM4dmLQ8jpJqr4sML9OQhBJwoGVTl299UhGNQsIXQJEpsuqFUlvlZJLGefBExDAP62xt89yO4shuseimpHg0iyZzIfD15ouSZrcCnd/vuN62SIO9Zw4kVbxVX2Byt1JMnSX4Q8OmjvvODWqyB1LcjO5Gr22vZ9mCmnjxB8k2AT1/xXZyfqNYzSHXrcW2CrcIchwUW6skTI+8AfPr+72sZy2dD2tQVgU4EZ1PmseCLnjwp8mLg0+87fv8rp4uQXlT1VWuS8yn22JWk1pMnQp4BZstF/Sjwozt0Jb9DpchOaecrSXryRMgf5vR4k12wM563z53olIocRz8s1JMnQH4B8PE/jKV1h46cyD7sTbYjrKzy9FQ9eXzyfYCP7/TD302Ht6Xf9SA8rcZ1ThboyeOSrwJ8/I+nzOEadKic+k1Z0n2g5S1uZerJ45EvC0yWm/RjNbtRGPy0P6hhQHpqbSe9QFr3KePkGgQvrvSI9+RdgcEZG3/8Q5OJ8Eq2IrCjMfHZrbEmGiFCtyBwjIPGwBv67UjWXfKM3UF4HVv1Zqwp8fm1aLY3B2HVJ19ppqFlX3JZ6E/2I2GRP/Szn1YIRdlt/U3I76k2PV6j7PgxOz00wF3W6/FP/yH5RN7uHOjxgT+3qiCkPbOqqxWIH/aMyGpGBEJ0tvrD7NJSutwt/G78YkB8Im9zDPT4XxSaXo/iOVU9bU9+2TPSKuujUdb9o+6OYnrc5VU3p//yhqEr5EvdQLpZRU6ypjDbJh3OpKMcO/s7WFDiLnGfBKggrzPkpW2jkNAnHytPY8Zdhz5E2HwU0RsqUgFvOjQAZGTgE3nzNRjkGaM/EpHQK1+OM6Mw5zIPJINu3ts/jMgPovzZZOAtk0/kwQUOf9lQwmg+oi0t/1J9YwrsxY4Q8/6vFD7tZkX0uJd7rk6D8B/rEHnGYjuLKDHzXKkoVx0vpyD47rMPNydoYXAf/wrOhqxD5Bmb26jo2ZOtqehYzn/cQhnFx8U+hG541h0uQ1qShUX+PuAJdR6jkle+XVtJQgG9tMIKlM4g+fcn2ZPYbOrv+gD7SmGRPwCa7zaRyKs+99VUExrL3tz3BIphJ+1eS+xXOi6JhHcd8Yl8MWDE/UagZj30MzJ6VvmkqyUFk4pI2u4uQlcYdeEJHxPuDXUZiXXPWBRrlrDu80DyjOFploOk7/UzpbHujea8RHHkxC2oIuP6b1a8/Vm03B9hkV8FfIbDdW7xsNFLq1BxmdRe9Rbhhqd4PI5jmWbfDfGIX8wn8iWA9RDHAp/RMoobebYwcFwJGuytWu7NQ9l9TnIJH3CY/VLBCpi8Swi3aKz/lQk5HMl/1bECmtJwnolt+6K4kJXxO8ohKh1GPe9noX8vn8i7xWOTtz/Achd1wVFPKkY9+xkRCNHZqvTF9gjHvYnv1UIuKR98Il8R+AG9QI+oEcJiSdzs8jIae7739vcowwge6ARpZDD2mZ/L7VP5RL4t8PHVQKurWyYeebbg3siSVAy6nZD8t6mHOsG0hhGXnfJUwQqf/DDsx5suZrEl6ZIfjRg5scuwIITrtvLdTvBlw7DflXTO38kn8sD+BsCyug63WQLyfrs7jWUvKz0bRf0sfDUNsPtUPfBFxeoE+T2gp0eBSmlXVpEgz6o+zXGlYcyXeO5LQYnbeN7v572eDcqvjMf6Wj6RBxZBuAjyaoxnScnDLg40YuRMulxIQxhF3rm6PznuXYbglmriEXlDoJK6C1St/ggx8mzy3nZU/LdOo4NR8m9jltf8gdZRvOMJ3DJNfCLvDXz6VFCtm3fkyLOKKH9vGuiZWgtjUJZ98JxvbYsG9bbHoAT9KPlOHpxK2xewAdsoWZKSGznakAJ5kVnT4ygG3cxHRct1myx4h7DgVaGLX/CdPLAndXxTwBOasYQl/3FnKv5bWZvgbHi7mzrnVM3/899KrPqGIdzgFYnLS5a5zXPyImDA/DOQIWcGS1yyD/rRWPdMiT+DUdZ9wtKq//gULFudQQn3iDvcQABZ1HZvQA+/Arpmn2MpSOzMijQcObJaa5C0kuDRpRmDKutjEX6Sc7Z/MUYA5NsBs+f32P76CWavaJBn8++Ot6Ox7C39jqOk3WdcHDH3Acq4340o/Y9RgvfkFwMvdcsAzpRKH6iQZ9Wpd1pQ0fId+gaj2JdSshB8clnrqv53uvhO3uwU6LOy/gA8YlAKS0nU+bsqGInIoxfbzIlW0hhwytna/z9bmO/kqz0Fajl9QHb/XJaexMzwNqCx7t2PxKpIjzUrqPv/qKV8Jz8QWPDkRW3AI3YpKZJnFXdH29NAb9z9dAbRgRa+mFekKgPPycuXALEFAOLkjM+ydCX9aEsqITulRjwmOMrEdbWLjpLn5N0uAv+VtwLcZ043KJNnle82lKPhx5G7LUsjNcY7tb91bvCcvB8wQyJtJMhFC+wcHbHvrQKT/ad51jRu9wYVDyfiH/fq3Kd9LL5TRPlN3ngm8MISA4pR8YsAnxfV9yTgTu/t7iXo+G+vpWOOTPFy0Y8CGPhN3vE+8NFPQFbU7sAUxpNSRj7kMq4+lbKnLY3jnnGaGoTleo3dWe+HBg9+k68DDhgHZlaNAq2Zws1/uzzKjn2GeQdQvt3oRQO9rNayOM6DyrnY7SeVf/hNfiX407qDnjELdFDmLPjn74wqrszBXPYFz8bQqLQismhwiuOIPgxz+pm5gd/kIXLNQblP8hXA+85//3lEBrVOp+PpU+qCwLZWNNjLuz3JQc6bKExcbvvziw+vyXcHf+wrkPHUZjfoEZ//zVC36HMtG3Pd5x2uRSX/1m7mC7R2CerP+2v/6r7BZ/KmAeDvW8lgk3/3v17eMrOf42r57+dXoWHQtfgTSckvON/v17sPn8k3B2cA5zbAJx9RZI0a1F//GXfZP/rDhrhFz2P5axSjQ8hkN8ATeUzeYCPYT/0Y2HPMHZiDHfrNmVqsxcUCTPbJ9xsQJj8xGEX9TFvjAwwZ4jH5ahBe6oXAWjblbwFVhe/Wl2Hvt3l46NVp+6oS89+KzBrcKUCIz8u6UFsGfjd/yUsng5Wt5FYMPvkbPwqOWByOu+5j53iTMega19mCcsJn3h0F9Vj+kq9wB/yV1zwIkN/zQ/NJg41xmOgL7g50JADeax5CUxa2MHhOGZGwycvHgAMqCpcY0SLPMMXa3MBd9olH2uFadqwHBaBc5tKW1YKtl8tb8k4QzulPPcDPqRvBkfzXG96IN5joCz9udcHhLm1wCsVXV3AVIfWLt+QnQvyr3ykDfk7D96Cn7Pz5xLsuicE05isSJhfnetzLS23JQeCeG9wPpUYyX8nbQYRN5q8VkSA/51c/9zkdj+kgVwT2LsnFfysrMzYC4TXKNzPRtheekpfAVLmIa8SQID/6l78vPvACtv/2UBv0KjtWA66gVLb6uKcp4gt4Sr46zAl7XqYB8ozUfcJTTPRs1ArU/NuG+1FKGOad62oj0gnyxXfBqNVtGCLkNwAv1O6bMA07bN6zccUQvt9lWSSKfhEzwAldl+An+e4wpcDDoO4vYLPAHvBDjOqeyVBjoVfnP2tjCrcsRbaDUOrkKeLXOnKp4cJL8l7XIKZZNRXqWZzv89/4DfvexPXfshvqwdzurf0CUB4af6AOt7sDH8kbTYXZ6yNLaZI8wzjPf4V5w1NHzasM8t8a+W5E6biUe7kv12gAPpKv/Rbmo5ebaZY8I2+47gvmqs99OPXXlQxLL3yF4ItVvp7qxjC6Q97wCpRDpBncqekB9NI+hvaZWTW+hrvjp5/x+/mNxLDLS5SbXNYaH4xoXx6Snwy1qR6ALD5uuxfon4e3s4iMe4fn4al6quQ9lX+omopMfAMQVAlV5jUfrKKcvCMvbg5V/+FzX8j7KzgmJwqp67vDwlDMhBz2w8Ky3yvj8prrEbI91Bl3+2NG9/OOvOcNGGup8hRsvQrTdaBnvUfTQgx8t2An5Fzr963/tuw4pBKGT2Z54Vbj5Bv54quhst2TekM/cS7wXoRq97TseQ4zJV+deLTt/4ZLWfa+iGIijt9aE78+E8/IGw6BM1oeLUaOPNK3/ser4DwyHNePE7vrXwdLzaOfER6Xd6kViYbZPCPf8C3c11eFHx2w9kL2XA6Oc5dFqbj5tzF/2P9tg5E5zc1CMBTkh/UpRiR1k1/kHV7CKc7HEL69E6hAkmIbp5nzPRiP67u/38te4jLyNUrsReQqEuudd+RLXoD7/tQ6CKOrAayVfd6c09RZ9cM97tmsfVPOIjxD/WmLL7GuKnwib7MaLqZcucESYXTON0HPe1CO29xJ3JBiJ/DldOfiDKOD5M0mQVqswxqg+KJlwDzUl/W4zp6s+roUjXF/P9KJZF8F/pCX9YIs4alYg7Y7bwS5PBMHcJ4+kWGt8+mawK6IW+FKth4Lb8hLeyfDaXfqO4ib8xRQ4yrFPJw5Nez1JJs6+MQDNRnCwhfyss6weWOfeyJ+Yhugye0gXgPSUgufK6hyzwgYQb6yNk/IS1q9h52GHajabVVgr4gnmG2Hjeqs+UKPu/LFRA8KjZP4QV7W6hHs3fgDcuswq0jQM780x51Gqwb3aIHPWVWOSuWlpuE8IC/rEQm7XeYNRtfCAoGqwxjsW7Ko+KAX+eSxq7IuNKDSOsW6f4RK++QNeiXD+rxVhzjUlN8KfOx+Evdk5wWhpCvsZtzsb0ljvRdvco2IFwOTfLHB8EUBXnFRccHdTN6WJjKh9fd9IsldETKjLA3uRvXXJ7I8IG8/G/5CnDbViMOXtgbPcUcyc2rb+0IWMfAJ632pFFAvNe+lgtU+ebG7fxL0XCgvcFqbZuAn7yE0qwYuI8PJcC+43KY4haYJjGGn55nEfNY45CtdRVgk8c24+SfB1a5TidnHDEquTcO/3ed96GpKoy+acf3LmQSjFbiTlzeOQ3BRKuZzvNZCtC2rT256pXWPfMaL2yh8M59Ot/vqG4FuBo2QF9mNR/F3KC9yvdf6gj2hG0jOsFWfM4UY4D9vbSSjwF3i/kcIhJ1YA+QNqm9BcnQ9qsb1m13AXxziQnSWS814xf2A70ijgCpTfCBUrJ8GyBsOeYBk+njTibOmW3w3+KAfRvjmVG09t34UoSPK0ODO1DiSAGVtoE/efhNa7HLSBO42TNko4LmrPkW4Wq3IqMaVbNSkDFX8SjcaNzmZw9IMSCsTZfIio5ZBaCdh9ipzjC8HJ9Gzkc3IT/iQh0i3e1XCmSo0lrvEdQx8qDBd8pIqK1FDWU5gtQbzAOfDFSwyIj7l4rILXsDf8DIvDKJSJdukz0WEWD+q5N2GhKCefsEeWB9vvhH8iuueFGbduN5KWAvlsyluNBrhGNTdhORBpkjesuc55JJDbzAbwIpGgdWtrL40uk8xxVpeh6kGkLa5nAmN1zsuCUU7VumRb3goDtmjlTIGdyf2fQ1+y00HGlPPiG2HvAJcYtRpZxrS2OjF5gOjUF3HiV1okBeb1Nyfge7JzFlqgTsHVmch1Oz2DCVxnff2Vwsv504PGtxFVmh1V/4jcU0okLfx283ljpu/m0Dj16mZECe9jBZ6ptnun9ZPVoYsdqHxSrmvfzyH2X6HEvMUBUW+ZPsdXEbCsodJOKkrQMT5FTSlRl5k2/Pijyurxfv7ymm80WXRC05xIhEoNZrBGkx5iee4Ex+5WTPPlSIxEQYHYV5lSA09I3Ud+qN8gnN+VjR8sab973JswfYE5TXgx/VZ/SKNY5GRM+XJzEVTCFvGl64ieugZA9fVX4osElVO1EAzGjc5U9/T6VxrukwjSz6La6V4xQkPUjBCIYxo50syNEVabtnjf/WNj1eGWdN4i0m5zdxbWGeiDMmYpSb5R9yITcgsiPclj5IydMVl+uFrwbFxb+9f2E0yPfJ/bnJuU4IxZvwoyrsq0iN/2J3clPjANCO76k6ZPCO2KlurbccWlVyoBNEzpoMuZGJMeAqSyaw6NfDnShOcE2sYHS9nrCEjZKlyJgEnHKhgkRkvyJNS7v57seoCo+3G1hQudgO3v/DaMCgPoVkWatHhXnDck6ymXeEuzGtPGwsVfOkRoXgzrgjwQXvjECrgE1fbE54Zo0VQN4x+wuRu1fEyZqutwlO+iO9cRgP8+3HkO7m3iYZ584vKAuQua7g1HnPGU9Yha1WnKYB/1p2CDd36DMwpmL/BVHDgS85/U4g542FD0bsoPyPOXXGlIY1oNFFbqHUR118iKOxi064fMLutqBLWuKPPuOc70uAztpYR05mkvVDvf1hdJBzuouJtLmEe8Kovl6pyeXX9T4TBx02gdqeuBFXRpnBzMcGAN2i4+TPmfGdeG2bD6d39kolyV77sT3GijsBtOpOEAt5tegjuhD//04vj0TotkyT4givN5RRnqh5cPGRiXUFwt+x3A7eLYv72Cpzj/3aTLBSRs82Lqs+k2GY4I9dLd/4f9YYNLmThZW6qc6825Z7GUOwiQZ0+rp0p5RmvA9fMXXXJhefcjcutzMHdXwOxAvxrPSfFXZ28vxT1CTNbAncByvG34TN3icfEF5h7rTJsrSvWGPomkFrwweNsNTBn9SC7hiSOMeLxRj/8Gu4Bn7ilGd4VSragkAz4/F315BqZNH9Iq8fHRrwFX+NAIu5032hpg3muljxMBvyH0SU0NG0+kG0z2I8+Yj5il7ou/4RZjqXw/XhL7G+rTuKYVyX6e8g0NnXTYA/IN41lvOMucRqJazNVvFlDQJ8SdSJQBezL8doavQU/gv2HDG7BN/TFO5/Cne3E3U1IOEWMZ2JzzwwYouEIqHawKdyqoDq82vBlvls+4nXIZHNvDCRjmrY9iW2snVZW07Nr4Q99DF134xF461WRuL6ZyCmkLGWlMQ+d5NmVTDQ+gyKfO7ArR/nYjifGPHGx3mGYJZVV2avc5aQ+ZxSG+VCd/2mVm1ZCXaVD4I0Qtyvy4qy3bnkR0wevTjpPMm/wFveRZD2aVEJb81h8F/S2qXzQzkTr3A1rbo3DPFbzAkaQzOxw5fx/mHZ3jqsWp7J6FPweGTpAy9Y8iefMIFw9+s0UT6KRRlO5Bl8cHF7BQKuTOQFhtLGLtOub6X83A1Ojz95el6yB1DCQ0zgi/6pVUqrt/fMhwmTm/WWlNT1P7nM1E7P7cc7tFqRdoC2QI33VBWkBfZ35kMxQ4Q2KP/OEt3b+VY191uCaynJe9ieuRks3oF0v1ZlRV6dXZfghsj4olRyUAS3kWhik29RXuF2Pw1ZSMEmUuYOkXEYe/rMOj1KXLBcgNZcMna5x9KZ9LuO2PE7e3oRG9kBv+M1eEXlovJ8VwytxPo3k8krf5aHR4UnrHMBNm2EDm9nRGJrdLsidKOHcrLZVta7TfW/KK4/WSbowqKVcY4qexHFtHKYvVhE52ZHKeEVNwR2E1fkZ92f72lsa8jOesQViM+Hktd6aSb+ROg34gOsQebOmLKXRWayHsNfM43fOwhJUxflBbw2E54lsupzFNNWyiceaULM6V4SwJwZX5zV4puRe1B01eVsD6nb8Jns+YnLPvTGMomV8DcRJs8eE3+TF5c8hhyqHz6HrbnCZGYmbwfBxgjvFf08PiDMyuQ/DcxHXfoxsGM190cGY1nFv4PxnGOZNTpW7tQzNC6h4M8wdWACZiXU4JKYpAnuVpBFOYuQ+EzfITp18sTHdWxRUBu18RgDSKYnDBOcc6+9KeoKlnpOe4F7gC2+MtKY7XaZbIOJDCr2EQJ6ZksopvODMNB+ih2nZcQHY0axh88vRni2okjMPBAGesZjHKVlEnfliJbGYYVnt9UEpuNzTdzWgbh132A+jfo4UBnnGfhPH23N+0rHGxtibvsjApm9AUgHuAV9wv7k59VhW2WAY49cHD4GQZ4r7c95nFcFTaznixOzIHOsswM6V+qp4BGuk2kMFmJJ7Kn8LoZBnrNdgZAemnZvRhmPZCUP3FhPPpOFzV4St9NBE7LrBepjRxLUSC4Y8Y7UVZ7dVxV//qwOyrm9RZ+TaKzEsAcnY1sRcI9PUCGpvPOrACEhKzE3FW3UfHp6a39UJ+n12TefeDE0hUm6k8FYvO81Mkt11KNfsIGFVlTOfjqtbq3LT4p9vGVDRxEguk/x4vxNJpHLjErX+2P8gLjmXJSLK95MdNeQAN1kCU1pMfdmOEZbIJhGqAZF8//C6cd1q+ni5OjhYm/8jtg4ODq6e5Ws2GTD7JG6GVNH/tti1pTQ1QfIhUJEiqUMZoYl8YhJBJmxS+K0zZ3Ys+0f2njlz5sZr4iUj2c8nWmvOxVEHzsL4sKTgyDOyUW9ZIUnBrf72mgt5sTkC59EexghQDNs9EBD4lDGemsxWmQOnmKRYCJE8I/W5XCgM7KqMPeU1meopagRVOJZVL2QEKiV25AlivZ/31WxEa0XIfhlPnIVKnjFc+5n33PMe0PbFfivOx+D2wqwRcsGSZ0zHRPCbuzJiQSUNz4nTRsgo5QtlGAGLSZt7Ch6Dz95SV9NNN8zmQ9ZdjOsrETJ5Ruq8toCn2NWFj1uZazp5QTIJ0pWpPGLJCF26vc7nI/fsYAqNnYAWrtGw4/vQVPDgGUn1A2n8Ix++1Fvzu6lRN+h0n9WMLojTpHCecU892EwLqciyLhGwcekfXXSCPGPke5NP3BV3e2jDIC5r/QS6YsdURkdE7Dznk4on3FWfRjtqIxlZ3PYjbAyB+qwjozvivTuOD9yVH/drp8+CWc9seCWkDqNLIu96J0vb3NWJx1tpxzJmNQk+UCltmjGjW+I1K1SpXfKXB2rJ411yPkJRlJPOjK6JSZ2t2VrkHjPHTUt2seIbEUITPzVkdE9EFo1uFWhL1cucba2lr7bajeC1VE+VMjop0npHP2ppz89dr5UYZpMm91FGeYPRWTFutTdWS8v+dE2NV9sWlZiIlAgQUYfRYTHtujteK+QVT/qaa/hby+1EajYcP0iuy+QZsW3L3UnaQK+KnavZ4LZGQUi+yuxV1oyOi9jSa0F0oVrz7LPPO2ksVU1kMhYtPFx5xlHE/AZi1vlklBZC9WJG2WvmcmdS+xBi9s+j0sxvIvLqK+8kafyWl3G0hSY6v3jMikYc2OemzO8jUs9B2x5qPHQjfBZ1l0ixXpdQo5FSJzK/lYhtvDtveKZh+FkXm1G930lr7YlD3csK11kzv5uIzUvUWx1eoNSgwqeM21uO2mkvli14h5xmorpUTsT8liKtNON6aFyG5ux7qWs8aETeioxLD37NwdRw3oP5jaVk28m7r71KRp42dfaHVA4bRvT8asRVPYMaM55yOboCazC/uRg6+w5YdPjWmwzYbftL8Nmd00a1n8Ql8KMwaEY1sqOvNesJp3TCUF9GL18vew5etZr1nLLlTPgv+ReGX/Gf1aZR5VJ/R9kYD+XmwHu+llzFbWm1jSE5nIYR20ZP/V81ydDC2rFUra49/1y9I+D+/fsh6fn5+UnB9+9f2rh69YyePXs2KeNoY/ZvFTX5Cm4qQn7ChW4W+GY9kcSi9YF4jleUhIFyPXAMk+DcdK7K3pdJle2w2qsYlmrqzznOUP2+j1SPD0dsFiRznXzVpyOT/Jw4zr/UsemkIAyDRNI4Az08PLFbhRPs9f7kgs4uyHd8kwo9552IwbmLJk6w0KPDvhVux7rhF8bc3T2isS38+5w6LDodFIdnf/wyxFAPjoC1/C9M/48iPeH95UWN7AykEvFPD36xWCo1dG03+3JMUi7m+9QJg4302IioeXNSSNiAFe+v7Zjeu36Fsk72X8X0P2JpZ2/vUMatQu0Ri84+JmREftxcr9yRWvXjP5Az/2dE3jzxVRb+R9YfPXHickhYOktOgvz0xIiJyVBepHHBRWI01PMiKMadPwkE/KU6elpERdoiRi0A7gUHPMV6WISl/Lkc3oP/OMtMD4q8uKxO5Tn4Fz30pnoqYjE6ic/cFRf1Xllqh33Xp/wFn73dQ6JHRA19jfN8LcWXNruYSA+IoljPecdH7jnPaurZ0Ba/O7yrwqh6t8pRD4a+eKyN5Rf4wpud9Jc5TYioeNcHfKq5nLu6vF6105AYlFml4otFTx3ZzVxPRINS92IaH9grY9e76GFoVmwmPNT+BS/lWFtjPQqN3+2rLNOy/y7v5ihrPQdtiFmbC1pspaWKmOSlj73RkkgcBodoSctXq1Z76oPttClGvZ5pQdUriD9WUT/32ha7cQEpGmYfvq2V/ibHhz2/zMgLGlTzFSFrmuoVer6wdxt2S0MBO8qQWbVN9DPOH5GVbLE3k/6er04Y7Wysd8byTUzGBMbRdONlRB1ur1fnecrez/9eJiV/XNSVyRX16bH8FQOvsXvfky/IlHF9YStb/ezyW8R2vlMvEQ3SzXm2vrWnPjdWENYd+wqD9yWQ0ffUt6bUddbnwgtKKswLiE7C0PhUuXEhu3vq93ghirRsn9U3whI5eHUU8c+vH1rcxEY/h8IVp8YDpq08GBgOX3IlK/T85lm9ajnqFXkdOPdLVKzTbvjSU4GJvy6G8fbF2W0Lx7atXcZSnxWpS1u/qa1j2XIDBgyY6L9x26WgoJB/+i/kRgR9lTMbN84f4FeutItdMVOZTn31/wMiPt9mZffdjgAAACV0RVh0ZGF0ZTpjcmVhdGUAMjAyMS0wMi0xNlQxNjo0Mjo1NyswMDowML+2C5oAAAAldEVYdGRhdGU6bW9kaWZ5ADIwMjEtMDItMTZUMTY6NDI6NTcrMDA6MDDO67MmAAAAAElFTkSuQmCC;textShadow=0;imageBackground=#FFD966;imageBorder=#B19545;" vertex="1" parent="1">
          <mxGeometry x="-280" y="289.38" width="20.96" height="21.25" as="geometry" />
        </mxCell>
        <mxCell id="xGI-26zCP8r_t2PSa3KI-5" value="" style="shape=image;verticalLabelPosition=bottom;labelBackgroundColor=default;verticalAlign=top;aspect=fixed;imageAspect=0;image=data:image/png,iVBORw0KGgoAAAANSUhEUgAAAfkAAAIACAMAAAC2HeWaAAAABGdBTUEAALGPC/xhBQAAACBjSFJNAAB6JgAAgIQAAPoAAACA6AAAdTAAAOpgAAA6mAAAF3CculE8AAAAB3RJTUUH5QIQECo5jMzDPgAAAwBQTFRFAAAAAAAAAAAAAAAAAAAAAAAAAAAAAAAAAAAAAAAAAAAAAAAAAAAAAAAAAAAAAAAAAAAAAAAAAAAAAAAAAAAAAAAAAAAAAAAAAAAAAAAAAAAAAAAAAAAAAAAAAAAAAAAAAAAAAAAAAAAAAAAAAAAAAAAAAAAAAAAAAAAAAAAAAAAAAAAAAAAAAAAAAAAAAAAAAAAAAAAAAAAAAAAAAAAAAAAAAAAAAAAAAAAAAAAAAAAAAAAAAAAAAAAAAAAAAAAAAAAAAAAAAAAAAAAAAAAAAAAAAAAAAAAAAAAAAAAAAAAAAAAAAAAAAAAAAAAAAAAAAAAAAAAAAAAAAAAAAAAAAAAAAAAAAAAAAAAAAAAAAAAAAAAAAAAAAAAAAAAAAAAAAAAAAAAAAAAAAAAAAAAAAAAAAAAAAAAAAAAAAAAAAAAAAAAAAAAAAAAAAAAAAAAAAAAAAAAAAAAAAAAAAAAAAAAAAAAAAAAAAAAAAAAAAAAAAAAAAAAAAAAAAAAAAAAAAAAAAAAAAAAAAAAAAAAAAAAAAAAAAAAAAAAAAAAAAAAAAAAAAAAAAAAAAAAAAAAAAAAAAAAAAAAAAAAAAAAAAAAAAAAAAAAAAAAAAAAAAAAAAAAAAAAAAAAAAAAAAAAAAAAAAAAAAAAAAAAAAAAAAAAAAAAAAAAAAAAAAAAAAAAAAAAAAAAAAAAAAAAAAAAAAAAAAAAAAAAAAAAAAAAAAAAAAAAAAAAAAAAAAAAAAAAAAAAAAAAAAAAAAAAAAAAAAAAAAAAAAAAAAAAAAAAAAAAAAAAAAAAAAAAAAAAAAAAAAAAAAAAAAAAAAAAAAAAAAAAAAAAAAAAAAAAAAAAAAAAAAAAAAAAAAAAAAAAAAAAAAAAAAAAAAAAAAAAAAAAAAAAAAAAAAAAAAAAAAAAAAAAAAAAAAAAAAAAAAAAAAAAAAAAAAAAAAAAAAAAAAAAAAAAAAAAAAAAAAAAAAAAAAAAAAAAAAAAAAAAAAAAAAAAAAAAAAAAAAAAAAAAAAAAAszD0iAAAAP90Uk5TAAECAwQFBgcICQoLDA0ODxAREhMUFRYXGBkaGxwdHh8gISIjJCUmJygpKissLS4vMDEyMzQ1Njc4OTo7PD0+P0BBQkNERUZHSElKS0xNTk9QUVJTVFVWV1hZWltcXV5fYGFiY2RlZmdoaWprbG1ub3BxcnN0dXZ3eHl6e3x9fn+AgYKDhIWGh4iJiouMjY6PkJGSk5SVlpeYmZqbnJ2en6ChoqOkpaanqKmqq6ytrq+wsbKztLW2t7i5uru8vb6/wMHCw8TFxsfIycrLzM3Oz9DR0tPU1dbX2Nna29zd3t/g4eLj5OXm5+jp6uvs7e7v8PHy8/T19vf4+fr7/P3+6wjZNQAAAAFiS0dE/6UH8sUAAEKDSURBVHja7Z11QFRL+/jPBrs0iJSSKhIqit1iYXd3t147rt15Lezu7i5sxUBRUSkRFRREumvj/Lz3fb+/+2LNzJmZ3XPWff5mz5kzH2bmmScZRpdEbFKshEvpcg16j9qw717QV3mnYP+RD0FBd7avm9G/e2WvMiWLm0oZvegOdMvStdr2WbDtSkgU+ytRfLy1b9HwdvV9nIz0kyZ4kdjX771g8/nXWSysZEc9PL5ieHMPA/3kCVfkFYdtuvryM4ssqrTI+ydndCwr18+hAMV+4JZH71MLWc6SlRAdMK+UfiKFJMZ2Vcc/VrMkRBm1vm1ZK4l+TgUghmX9Zl5IYwnKp119q1mK9DPLb7FsueBSAkta8p5v6u+lV/l4LGVGno8qZKlIwr217YvpZ5iXIq3u/yqVpSf5CQ+mmuinmXenu1P/ELWapSzquBWVi4n1s80jZd5nbLCC1Yh82d7JQa/q80QMqi99nMdqTDIOjSyjZ88HQ53vmieFrCZFnRIw3FQ/8doWx9Uf81hNizrlViP91Gt1vTvOzVSzWpGCm22t9bqelkRSesRTBas1yT7aSu/N1YqYjTifxmpVPs2roA/k0LzU3JfCalvybw3T2/U0LFbjXilY7Ysq+byPHoYmLTeNb6pYfohaOaeEfsvXlGbnMTOF5Y8o7rY110PRiGbX6Uo+yyt5t8BZj4W+2M99p2J5Jtnn6+nB0JZSlzNY/okqbIg+WpOmiMy6v1GzvJT845X1ih491a7s0i8sb+VpBz16WuJ7Lo/lsXwcYqFnREXavmD5LQlLXfSUyIt8cBTLd8k67qEHRVq3K7EsjeW/qMOby/SwiEr5rYWsICSlj7GeFkGperWAFYjEDdfreeSk6W3CjvWwrxJw8qsEvAoLe5tDNjJ7to2eGCFp+FhJyLkSfWvvqkGtfDzdvoqj/VdxLOPm5u7t03PE4r2BpP4B0uea6ZmREGmLV7h2O1V2cuzjdYOrywykEonoB8mRIrFYIjV0bT9l99tPadgahWpvcT02AuDbvsJc6B+Djs3uXBbydTKfwZsvhyRiOoUO6vPuscWg11ssc3rYqUXdvQ3R3mlea5D/zUSs5Nt97np0mOAHRGMASN0/uJ4LJ2u6SbnWiwLTMfy2e0vr4WFt9X2iOe+7eQ8mVrXFcKKYutZeGs8Zfe4O/VmPA745xzNenRk7t5wBdiaERDbkWnwuN/1SteLflGsjMxuHMu169Bi4dPXq7dfu3XuRmf9Vkp7eu3dr3+rVPXo0KO1oa2msT9b7V1pwA6+KuzaJlIolr7X4AUcP4Wzrr/+7Nq6VG7WZtfZy2C9NUfkRV7fP7duqtreTsb4sy1dxD+U04/E7epUgOYxyc29yOvEz/uo8cs6OM08TYK0R+W8eHl8+vFkZw98dvNdpLvOdtKcD6RPWoNzQ61yCPrNis9BPioyIm/tnd/ut9UOP0xxMKnnH/GwoJDrKnHqHshoTVXZC+O0l9X5Xr1+JbchOGlXquWpSSuek2GJkuEYjgpSFsWv8HMx/vwgv01nZyHfoW72pJrd6rArRdBJHxOYBlW1+s2TtvshV7cIWlqN8L5LV2RfPalqCdwz1/p1K8VVFNd0VHK2vgQom1r3vKTXOPiVwY73fJpq/5CXE2YkcUlIz1mT3DdkaR88Wvr/Y8/dI1y6+F027yzjoqbHDUOoboYW0PnVh/OryxXRe3TObhWY5iZqo0c3QefNnVhuSfainq25beA06IR3y2ZfbaHiAxUaGaiepM/XMkBK6TN7tHpLNbpWXxheCUdN7rHYk6VQ/a90lvwmlDkrqBCst+DjEpY5rCb0q8UpXHS3JJeqEcG9SRjfU0slnOU9bOX7qwqA2xXXxvPcOQwh/CKippVFa+h3MZrUmeWda6V6TjZIH4C906Ts9tfP98hp/xWo3nyN6eXkdAy8fBR/5mLNJS+VpHKY/0nrKT97d/roV1V89GN6jvdZWO2PsfDedD4U7EvZU0CHwVhug5zRzojb8GCKTmicKeFKwRfVxioPO+PHaQxvvEiZpo6eMQeUlCSyP5EYLSx1Z8g9gP/nzFG14MOwnPVKwvJKE+WV1YtlPgrbfTLbS/OiMu53MYfkmGaca6YD3vir0VX6r5vVaccW9n3lXgvEfD+4fggdvcQjSepe3V+PBiQZ2C1P5yP0f9odchO2+lXSPgQxL13jiksR5wFOWv6IK6iDomsvOJyH/xS96atpU2/lkOstriZkq4Cw+SbcUyH/wehrWZitvf8/yXZI2CTday/YU3Dcm9tCsLltiSogQqjPlHRVszEYHOPWuYKxGHZTWnYMFUo5N9bihMJNyLB7Cgd+t0UHVPpvHCkbC+wiyc+ZQuK+7psECNPIaSz+wQpLY6QJEbx0I9W0RrTV3c7Wb+oT4gs+LiIi4eebM/uV/y+pDZy5HRGQSfHz6CuEF6fVOgvmyrJmaC0Fr+YBood34gPV969es5uXl5eroaGf+t1jYOzp7eVWp2WXGvjuEAj2y/IV2u7O5COP5VJ3VkP4qMq5+IouIL1adkxofeX5Se1cTQ9nPLqNiqdzIxKb1tIvvkrJwHUJ5m0oKK0yrA9SNObS+ZkYjrbiYiC9W8eXF2T/bOEEfUMa+o/c8iMbL4CnY6Cgk8Ob+MFe6giGaGY3jiPtE7GrnVw2sgnzRcmq54MRrHPgFW60ERL5OOMw3XdVI/XCzzscJmGrTLs1qVYpbvRuJQ/3BGzGshoVrhKPmGU6GWfJpDTQxlgr74vDzpD8sbuJshHHeiq18xj7kfLHIXCsYNa8MTA0axRz64VcGTtMScbkXxJ9qbmmArWZJjWsvi8/m5hjO3SgUNa8PzOc8rkzdZ+Q88DGubp31al0VYkbUEpOuJXK6YRSsEciqvwLxMcljaFulZV1O4jY6zrg+m2zSj8OQfZxuGSkzBGHDt4eIblOepZ1VUW0ltqn2yhBP4hNu0/VAMhcNs5sQyE+A+JIvXeg65W2mhuCaat/NdKHhPxbbtzrJYWjhnfkPXgYTan2Wpr1eZNb2OWb6REH4dGdacQNiww4vclCHp35Sl/fBec0hKo3l16E4AIsGuzCXuzLGn26LQovpj5EDvu/V4HkkvnQNhMXqEsWbXLXl7zBN9IkHqW+tEu9l71Btx8d4XjzXFaIjWWZzaq+3nPYYM9iqIGBACQ1cn82a30JFv5PH2I2bzb2ZBf6GI7Q6wMmaBeCaapNGu2ooMNBzEWJNrty+fGRuYGbrPfpcYk4hxE6b1YtO7J1RlcMZeBu9MmFbOc0pUrJ6l9FO+3e+fDvqLd1qD94WAX9PptIISuaOnRebcKqZZrsQ2C39ghSVecOTT9jllfr4X/uEYB7PnUnBICV2GXod1/1+f4C9xidvBFK/ztx1/OmUatVh3X1EI2l4EwoKRreTiZgafeT8ylqYP4O6x3IRBvllAE/MuF7jn35EjV9X7CXvpHPZ/QnTN5Ozs5apVhxiYoflWQjjfKP9SkoioxIdTiZyiDb5QvqyLC057ROeL1ad86CuodYcofK+CHqp+oGJdrnLnBvNi+A2zc8IFwRx7BeEu96DJmo3d7VXCILjfrlW9/uyI09xLjuwguxNrsWxLEzNLmKRt5ZLUBo0QuilFddUewMtOex6KveJrk7SCOqzMgo39mJHY+33kxNXvgStLilOOGnr8j7oRhLGTMcQ3KzMp73IxeOueNSdF/ckcbnb0GNO+0MbXjtpsYFP87CuT0uITZaZX2Q+3k2u8O1YvtQaFtkdgvY3PK+jcW1U4tzvDm7SSD1CM2XuuxezspUieosTwx+x3g6dkrdD0yH4dj1P4WpT7H1CKSPVl2Ee8OqEw6351TDWeUsGrG6i2dgsWctTcfgpC0uIJAaXHIYdVXulnxPf3B+uJ2HVvFBNlsp0Wf6WQIpSQU8C023Y8mIS5jjezy7Fw4KDXtBn6TyNjcms43MiVUbC8cOw5FX3p+CVslMl7fLiZRSzyA62NHi0j4Y2es91hIoOnHbFHYr7RNz1nnq+CW+j1+u/hPunzluvkaqh9gNJtXZSrcArlSByGH4LM9gq5+54C4a3YtAasjv629YauMpV3f6ZVAX4lKF4Y+lxPBlTo4+e683r6GWToR/hrqSb6CdcDXtGrrzM64Y4Iym1CTsvdltNvvcMMfsLzkzxoSHl3afi6VyCLR9uuXC3Hpac8g7vJqfOedDEiP9JqcXOw33NFqpVMs17RrAERX2Us2pl3+sR5stzn4wSRsMIZ7iEwDRfimMoPv0jSfBs/kqu/4FNd+EeOdGLKzMCkV5wYZkX6d1Q7LelEgXPpg7npmNWWhmBecAn720jnFYR5ouhPJCFfrQGUPkk6dLAnzgVwzKeGIrrm7nXxU5A7WFEpeAKxJ+n43eQd3ipJAyefYuu4IlMWt3G3OgLYsfaCqvvq6hRCIxa/aU7DX3VZsJnlriEoN8tqm/DLF1Z+G6DJyM4mQjjtlOdpdDb0dE/hTx49jKyrRZbo0/d10qIFaNLQF3tYrsQf3GVg1SqwO9BvVv8+QnzjXcGlmQEKbVhMkMV/qTvqfVu0Cn//yfaMKxWYt4tYmZ6CrWxu2QezAc+qET0peL6j5VUwLNolzpjPK+cOnFrBRkjWHGFKTqjGETUCdHwOUtJkKxOBl1icN6VfLMZI2SR9oJRbc/ZEXxlrRBa4NFC7UvjKHe59/6g09PcxLNem4HD2/lWoB4E6XAQwlWfVYvcCxvcowaeRaqBNxzHVDujIhVfrFnLrTdCPuQoYl/fOdyFcnF+cS8Y9XY5OeXuLsXuzEjqVjD3yO6TlamkHVr2Ovv+Xw3o47UxdNPtLQ9CoIghVDBcXA9DuVMCdyekQ4djrJ06935LGvmRIuNmj4pWLFblRg00o2kUbgzhtFN30rpyl/r0dDRJ8is5mmofjaFyApvX3v6j1531s6Lo8YeZgytEPFE1X3B1ibw7PcGj/C2S5C9x2nbebKBSwlBaeVH0j/eg+FX15dTIV8qGsONV06Zy93xxSwcxQ5b8ay5hfrtbU0mEt5wY+NMs5/xns+yooT8McYtZjP8an2vclLsXI8r/E9wGJB+BYsjgkNdxu4c9DZOdrMmlX9oSM290pmUxag5Oq1cH4FYNF7kc5AI+9+WwEv89aYDknyAMpyJqjfLC+BnmNG5ycu+9oMQOderhKnS2fLtjYG/tm5aYL7H6i0McRlrwiH99BkTJd01EO+A/bPCkoWYblJ4P5a1OW1iWSkn0jmDPRd40zI1uFHoke+aNKf8baqFF8tkHWtPodil2HnAVdgh3hzhT+Ndzuwh+8068yPsG6LGWr8d7FtletUZeETiaiqnWqNPRL/Ah5ylHO5H/75NOB4fk3a2Apd09QOWef6DiN2Fg2iL/cWZ5KtGVzttikDQfRcw28i1aGrwC/8vhHPROxxEd8gXBPb4LCtAKeVXWnrI0tCuJzfj3yEEKhe/H2xC+XZicAO466incIzGt/RGDHKOW/eC/Wwvk1anX21NRqkv05FaaQfG4J+GDpx9Y/zrJ+ZXG49G0u7xLLX50gdU8+YI746k4zIyaHuLcRj5zV1Oix73LS+Ar4924Prwj2t054a8ft9XQOPmYWZVoWG4kFZdG4ngkIxd6kRzWBvAbuR701q+QPuztwJ84KTRMPutoQyotjc0nPcVM7MgOGkMw3rc++IX+HI2TW1CSZRUBFX+mSGuUfPbdTsUoeMlExr6v8JOH1Tk3GhCroCwFR2WFcnqXdBDKIZ+0++frTIPk88JH0siLFZnV2ZXDEpEs/yqkdqQ94LdxquvnfRc+BEIVOvYXhQc0Rl71dl01Gvs8U2VhJEtKlK//LEtmVN3BL+vN4bEWi7PhN7EX7X+ltmqKfNbuNlR8sfYjA4mmGeRe7UfkuPcCxyBziMYTt4qF/5SXzX7pjdQQ+Wcd7Wn4Zgybn0lmCcvn/dUJuA9tjgNfdB79qQ7noNUZ1QvnX19WNEFenTDDgcZNzsB7xxcK6SWKzyscsdnL/gAyeoW8FiRz4feuANCxpQnymRNp+OBlpf9IYilJ2MCSuFtUa2CO3TtklaIqdIpy5l4vMQ/IJw6goNGXHHS9gKUmOYfbY9YyqvYM9I64xoiPtDoBveJ3gtvhCpV8l8OJLE1RfdiMdxVxAZbQSB2B+Mix0E1cb0EUJxcmeRf/WCVLWQpeT8cxP8iWAa2Gs9GeWPOJGla5g6lKL0DyEpuxEQWsBiQ3sK05d6PeCNChrD6M9PBi6yAdkap7UI1khUfetusDVlNScLQu5/KbjcNAT79sjXKVbw0ZgKV61kSii+TNGm7LYzUo7+dV4hidXQ74D/rIG2XJb4e13LWBC3oRFnmJ97IwlDbKN/5ci1szKv/2OG45mFbAhKMIlNp4TSFLkST1g/xPFRR547EvshGgfZjiJbVseQpzj1AnX27DZbDiAyDfSnwvhP95yM4ZSuie4cIhLzJsGojAXZW9xUP+VYUSWwx4hWnZV6Vvc+UQLroA5EHMnwr/sHaQQ70I/UTBkDetvxOhyJ465eK//UCNl7/Jx9zzY6eWRbZDDgPuzwuhDYXFIFMInnjrGnlpeaReyvm3itRdMaiz+QNeFx228Hp/1L6YLYEqxiYLcv9F/0hUF5mOkbcbjmSqjZla4ZuLTbHOx3GXfequxmhRmpWAkZJ7YP+ZylyHMuKkz0DwMAuBvKzZKYS0GTZ7u+/39xqJ8wjcIlKKsBVIJYCLAyNGDkIGIYvGQLVDVBxE8TXwn7xBif2pKDe5++1Mf2gbk7mvjMfb8tV54cOM4e1uImBfoxtecE9yhnPVPCnF6BB5g1LTUYqp5oSO/EXuSuVj2BWhrzaGr7TyGPSw2+Xh7odtoYZdiNb+lOfk7QYGIBzwijerf52oaNjnGmYVbjZhXT1YLQoYhfm0Kpxivw1qZEdkukNe1vQoSrBV8i5g3RVxmQkvML18imdznQmRh2xlVTEeym5VndEZ8p7rkKJqAzuUgLgfG1Valou57LOvd4XSoVcRIr8IRr3NGWuoI+TF1mPCUDb699MdIWP9jGufz8PLy1AlH60MsbWOJUPeAiYGRXEINXyfp+TF1i2foLB4uxklqM20750s3Nv9CnClldFkyMNUlFWHI6fp8ZO8abMtKHmxaedQ2xW7zgjFLRj7aJCLWBPkTW/DqDjDTHSCfKVFEQg374I7ozj0wGi8Ng532Z8EVFohQ741zJXuLHp6CA/JWwx5gbIXx83w5BI7IbLqeB7Tf6v6sMeDOnmxP4S2o2zACJ68SN74ajrC5OceKMO17Ii0WL9oTP+t4t2fdhK65MvDxJ5xSNfhG3mjmjsQ1rs69XJrrEqWDkvfYcZyKh72LUGVfH8IzT6tudDJS8pPeYfiOb2LXaxe3nAnbhffzH2NfnLITiFA3mIdhMZzyFrg5K2HXEdxpb5d4MPgS/FOF3BDuCOWVvjhlr+BAPmK9yEMyp0kwibf6DyKLzb9gB+hHhhu48Ix0ec8Gm/GxXr7DJjGI+oAPvzU+zlVnOILeanTpmSUm9zDDhbE0rLlbv7JeEY9dda92nIRMnmwr85yE/jlHJte8oO8pMxkhJIAbG7kVMJ1lspdScIM18rZVu3buAAC5F3BHQNU50oIl7x1n2sI1yvlG//KxNPxzUZcwzToKl/NKFf0mafxybcDz0vGREao5I2a7UTqpFxwyJUhL2LPqbjNHnMC+hRpx/Mcn/xO8FvfeQiUvNh9VRSaCV31+Wh9GqUYjHzWp2Oyjz9Y+9+RuQA7fJwCxfWJ3oPfuV8iSPJiw7Fh6DZURdJyWxrlV8xbXMnGU/UUn1aV/L+ReePH3rpDHDK+jADJi206Xuc4xR+GOtGokm7W5yFuwuaHfv8tCgSuCLoSZHgeAn7da0aA5A39tnKvdJNzsZs1BfRMqZWhmOFaeac6WP+t5QOzIxQzQIPZB37bOAGSd1sahuUjj91RhwZ6edPNCZg+vHdbGn190DxQFmAaqMG7BThFIKa84MgXG3YHd19VvJjtRAG92KbNLcyRFYRPs2N2gfaO2K6AkdQHB5wfsBYYecOGAZnYNYpZdU5Qb3MKJZQl1qM+YYbsZN9pfg70N6GNAOOYDEytUQ6RCoq8UbldxApfXKxNo4wy47QyCpN9JvATQTUzZHuBGseHRoyAyEvLTYpiyUnCsqqGFNAb+O6jVmjxv3IDcFaVAkfgXXITEHnr4TdziE5g/uNpzjSWvdWQa3RL8pwFOBvrgnui+JsKh3ytS1+IT2F6YFsay15adtIbFT3wqv2A9/cF3jGSBosEQl7itvYjlblM2FeZhkHXsPz6fGrss6YD3j4JuOU8qcwIgrykzOT3CDOT9xFF/Y+fX56GQZdpejqJEvsEQOElw7+Au8YJC0GQt++CZKqNXtt61kOUHwT3puHD+6qXBNA57t8C/DUOR4BXxzmMAMib+m1HSV7PPtTGmDGoshHFnJZ2vJ0pjeO+3IwoGuQfARwPngHAXaOtAMi7r3qDkh8ZPNjhP5a+dmcRgjKV73Z40Vj2hr7bUsmT3wV4awOgl/d9Bb6THyQf9AZhx1R9me38f+tBYtU3HMGkUhg/xJJC2xSReZvAfNLkxwJe2haYWviU4Tn51D23EeAp4w4UPa9NFrxF2C5UT7vaUWmZMzA8lyx5gAVPOhQclMF38kim+OSznb69m0tqbI9F0K/TD7ag0gez7OowBUHwOQAThDlQtWdn6xL5WyNL/WDFFu94EmWzfbOwIg30xk12p5Aj/xh0pzgAfER73SEfs8zrJ3lyrkNeoqynwNHFabAv0fohMfIbAO9yAQeEuugIeXXOqRo/t2QbuC9GKGenzrzpR8OoJ3aeEE2mj4oadCMrHQ28+TK6QT7zdgtAXmz5PV9QzGkbfExorHv39UTYfygDeE854COu6wT53KCZEKU7+19CuFer3vzpRWPdy/1OJuCTP2iNTX67DpBXRy+uBhNKKy4z8SHCDS/7+igqzXBLDL2FbdAdC0r8rwZ8xHQdIL+vESwhY+/5KPp10glfGQX0Mq8pn/DAf2wCekcv4DMGCp284nVnSwQ3s0m9EwjpEMoPq0vRMOwYee4uwAkkvAbMiRoAfEZDYZPPfzUJtQ+oUefbGQhviB7jQIO9tOnVVM7slcuAtfKBdRTZ8oImH7u2EodRO0x5hmJOO9fBjor/dswdrhWWEvoAn74G9IxUdwGTTz3eneMxXGdNNPxr1PE7G9A47pkKSyK4kYeocr0R9IyIUoIlr3g0wInrPiyy9DuE4EEpDF1Lxahn0ngvp/zbW67AR28GPSPUVaDkVWkz7XGSIsVW7T4imFTyn3UypZCUIbZsE8TBsJO5EJglEKSj5BXxu8pjT7vF7HAER47iil8xGuuemfYa3X9bMNscl/wDRyGSTz7ZiYSNRVJ1/XuU2/2GKjSisyU+a9ENukn9cMkfsxEe+cIHw0nlRhi3O4LSsPTB5NI0Vr1Fm0PIITuRlX8/8p8WkgyOdxz0CH7BqdOu9jSiwd5pwhtU9JedfzPy2UdrmxBVtQxc5iGUs1OlnPWkEZhvWHV/Jhr5/G2WvxP5tCeNKEy766HPCAdt+nxPOYVByDo9RDPsZC4w/23I5z2dYEtFvTbqdBZh3SufjnChMYqS+5KR0H/oLf9NyMcsqW7AUBLnYbcQ5jz9THsaYRvWE0KQlPyXdTHIP3ISCvn84/XNGHoiKTcfpYLq+600cjCN/a4g7fiBRrpvyVE+6WLD0BXj2sey4Lf8gvDpVuSNehLbpSirXjVfpOPkC19NKc7QF1krlFYo7Ot2NhT8t0PjEZy3n1v9bARXgJdjN/6TV77fXp7RjBSbEoRg2cnZ08yC+BDkXYPhI8ZUAW5cfXUC8M9nn+xkzGhKDKquRCjKoYxeXYn4EAwb3YSPHshcUZwr+Wa8Jx/VVsxoUMo9QNGx8p9OIL7sJd5HESLyOv5Y05wE/GV/3pMPbahJ8IwryvXu71V3tSFxw471VeizXh34YysuOA5vhZ48Hvmv6/5AddLHke0+eFVz+w+NHJ2Av9utJ49LnmXjpnkRDteyWQhtz8v1+9EDKgN/d1NPHp88m3dtGGG7st1C6ADhaz96tRfQ7/tKT54AeVaVcLI52XFYz4V9d9qYH/y8VCTQFqUnT4L81xtewlpnokY90/2Qap76wQ+iNEqCK4nZ6MkTIf+382ysK0nfvS1seLBi1fcejeK7gT9roSdPijxbeKM7SStz2VOQ/puoFt/9x5kuBv5qiZ48MfIsm7ypMbkoTUkdWGve902FJYOBPwrQkydInlWELXUjZnOU1IMsopjxfYvRjkDlPry4njxB8iyb82woOfRtIMt8vPxOuWwAzB+Lb6YnD0MepdLK5caWpNT8KZBa3uBvf1gF6KFPH6cnD0E+9/E7hPzbxDX1CBnzrffA1dd4+K3jqPR54MG0TU8egnzi0E6HEFz3ildzHYgMR1QpACpKJ7Hbt9c6cFPaK7Z68hDku0qc+qIU1cu93JdIlKZB+0iY1ymPf4NRMhu4RwVX15OHIc8wUvfFX1CSMg5UImHYMRyfBuWo/3bR94oHOpj/EOnJQ5H/KhUPxKOs+zWuBG73RgehXnb8mzDq6sHAn2w015OHJc/IO15HqbLzYkQp/OjsMu/hTvqib7K8APzJ/Yp68tDkGcZp6hOEoPi0Ez3xj/tRULrlnm8sMxuBw8zsItaThyfPGFVZjlDFUhmz1xt3TPb7oBb9Nyt4OLji5ypzPpOP7cIz8gxjXjEAISheETEdM0tEXO8FzItmFf1V7Y/AX7wqzWfyP+s/r0XyX4/79ndQmqKF9CqBNSjp5CyIt3wpmmxlDi50zraiRv65jpL/+nezghCMevmnGmDVdyl7HcZ63KHojw6Bf7GGGvkka10lzxjU2IBSvTZqWTWcTOChMGW6Txd9wzDwL95yLQHiehr06B1uukqeYaw6nkYw6OYGT8GopWl1CeIVsTWK3gYhzE1+HMdjuxe4zT0dYq6r5BmJbZ93CMs+I7AW93HVhQkBXl70N0Hgn9zm6FmSLoZQc4JaWeoo+a9isiwW4XafucSZs0F3F8TzAz2L/GQC+BfxXEOGR8DYlHP9a5voKnlGWns3QoPs/DNNubpva0IUkEocXMQ0Uz0HHDq4jaN9uQJUNyZl6DyIVs/CJM8wll3PIXTKeN2V48AsN0I8fUcRO54jBJ2Quhx9iP5wNfyyH4410lXyX1Wp0aHw6N9yNOmJm0OY7wOL2PFM5kEEj/3J0bHQGrZFdNrF6jpLnpF7r4bvknKFY8yG1Tbws9NbF/lJGwjv0h2uJRSWQdszMrdXNdJR8n+fe0dTII97xX5LbkNrD3GRWF/k2RXuQmzHAzgueqML8DV9oma4SXWVPGM05Hoa5H7P0WZqcww81c+KpNObrYX4b7zG1bLsE4hwpb0w1F5XyTOSsn++gNoAC//iWN9tAPhIya5X5Bd9IbyK+f04TpVBwwCEmsGJB5rLdZT8V42qxjKoSFmIbiQ/XvQQgYDLivyi1G2I4URzjSCQum5F6QwSv95WV8kzjHmzqzBzMJjj0boE/OzIor+YC2NfnsE9XrB9DEqB9phJLlIdJf/1uO/3BLwOFptyG5wdhOGgbJFfVHwLASSiMvf58tmC0pch/1oPe10lzzBOy4Gn/X5rjqOD2FGKZs4YHIGx968z5T5hZm0PIbT7Zb/sb2Kgq+QZOdDkcotrGkYPsJPgZNFftIDB8Qar4IdTlycI6NnQ5eV0lTzYR/aWaxSUG1jHC7VB/Df828SwwQpnzsQei+IQ0OeGjDL5XckXeHE13m8AzuvHOkV/Mh7GwJTREy8pROS1HcFvxapD6v1vzulvRJ5z0VlxL6CO922KrDdU5NADL8x5k7e6hHLcZ25sYKonjyLg5OjCTUWXr+UmKBTbsJN/HSfcz4NHrwxb4q0njyDFd4Ctsfbf+Pg+QB2++MHt8kqzUI77/IeDzfXk4bf7ScBoi+ffxHxZbYcCEVwGf/JMKh9BQM+mnK8r1ZOHlYbAUID4Xt/8pDlcHvZJawLTJ2t1FyURIW93JUM9eUjbPbBbBbvwGz3dZCdUqGDKBCJdGG0nP0RIRGA/TfQy0JOHkh1AY+nOb4teNYI7fp/5kink6LM6CuW4Dxg0LklPHkJGA6MAzn9rJ5Lvh1O3L5YiM4dmLQ8jpJqr4sML9OQhBJwoGVTl299UhGNQsIXQJEpsuqFUlvlZJLGefBExDAP62xt89yO4shuseimpHg0iyZzIfD15ouSZrcCnd/vuN62SIO9Zw4kVbxVX2Byt1JMnSX4Q8OmjvvODWqyB1LcjO5Gr22vZ9mCmnjxB8k2AT1/xXZyfqNYzSHXrcW2CrcIchwUW6skTI+8AfPr+72sZy2dD2tQVgU4EZ1PmseCLnjwp8mLg0+87fv8rp4uQXlT1VWuS8yn22JWk1pMnQp4BZstF/Sjwozt0Jb9DpchOaecrSXryRMgf5vR4k12wM563z53olIocRz8s1JMnQH4B8PE/jKV1h46cyD7sTbYjrKzy9FQ9eXzyfYCP7/TD302Ht6Xf9SA8rcZ1ThboyeOSrwJ8/I+nzOEadKic+k1Z0n2g5S1uZerJ45EvC0yWm/RjNbtRGPy0P6hhQHpqbSe9QFr3KePkGgQvrvSI9+RdgcEZG3/8Q5OJ8Eq2IrCjMfHZrbEmGiFCtyBwjIPGwBv67UjWXfKM3UF4HVv1Zqwp8fm1aLY3B2HVJ19ppqFlX3JZ6E/2I2GRP/Szn1YIRdlt/U3I76k2PV6j7PgxOz00wF3W6/FP/yH5RN7uHOjxgT+3qiCkPbOqqxWIH/aMyGpGBEJ0tvrD7NJSutwt/G78YkB8Im9zDPT4XxSaXo/iOVU9bU9+2TPSKuujUdb9o+6OYnrc5VU3p//yhqEr5EvdQLpZRU6ypjDbJh3OpKMcO/s7WFDiLnGfBKggrzPkpW2jkNAnHytPY8Zdhz5E2HwU0RsqUgFvOjQAZGTgE3nzNRjkGaM/EpHQK1+OM6Mw5zIPJINu3ts/jMgPovzZZOAtk0/kwQUOf9lQwmg+oi0t/1J9YwrsxY4Q8/6vFD7tZkX0uJd7rk6D8B/rEHnGYjuLKDHzXKkoVx0vpyD47rMPNydoYXAf/wrOhqxD5Bmb26jo2ZOtqehYzn/cQhnFx8U+hG541h0uQ1qShUX+PuAJdR6jkle+XVtJQgG9tMIKlM4g+fcn2ZPYbOrv+gD7SmGRPwCa7zaRyKs+99VUExrL3tz3BIphJ+1eS+xXOi6JhHcd8Yl8MWDE/UagZj30MzJ6VvmkqyUFk4pI2u4uQlcYdeEJHxPuDXUZiXXPWBRrlrDu80DyjOFploOk7/UzpbHujea8RHHkxC2oIuP6b1a8/Vm03B9hkV8FfIbDdW7xsNFLq1BxmdRe9Rbhhqd4PI5jmWbfDfGIX8wn8iWA9RDHAp/RMoobebYwcFwJGuytWu7NQ9l9TnIJH3CY/VLBCpi8Swi3aKz/lQk5HMl/1bECmtJwnolt+6K4kJXxO8ohKh1GPe9noX8vn8i7xWOTtz/Achd1wVFPKkY9+xkRCNHZqvTF9gjHvYnv1UIuKR98Il8R+AG9QI+oEcJiSdzs8jIae7739vcowwge6ARpZDD2mZ/L7VP5RL4t8PHVQKurWyYeebbg3siSVAy6nZD8t6mHOsG0hhGXnfJUwQqf/DDsx5suZrEl6ZIfjRg5scuwIITrtvLdTvBlw7DflXTO38kn8sD+BsCyug63WQLyfrs7jWUvKz0bRf0sfDUNsPtUPfBFxeoE+T2gp0eBSmlXVpEgz6o+zXGlYcyXeO5LQYnbeN7v572eDcqvjMf6Wj6RBxZBuAjyaoxnScnDLg40YuRMulxIQxhF3rm6PznuXYbglmriEXlDoJK6C1St/ggx8mzy3nZU/LdOo4NR8m9jltf8gdZRvOMJ3DJNfCLvDXz6VFCtm3fkyLOKKH9vGuiZWgtjUJZ98JxvbYsG9bbHoAT9KPlOHpxK2xewAdsoWZKSGznakAJ5kVnT4ygG3cxHRct1myx4h7DgVaGLX/CdPLAndXxTwBOasYQl/3FnKv5bWZvgbHi7mzrnVM3/899KrPqGIdzgFYnLS5a5zXPyImDA/DOQIWcGS1yyD/rRWPdMiT+DUdZ9wtKq//gULFudQQn3iDvcQABZ1HZvQA+/Arpmn2MpSOzMijQcObJaa5C0kuDRpRmDKutjEX6Sc7Z/MUYA5NsBs+f32P76CWavaJBn8++Ot6Ox7C39jqOk3WdcHDH3Acq4340o/Y9RgvfkFwMvdcsAzpRKH6iQZ9Wpd1pQ0fId+gaj2JdSshB8clnrqv53uvhO3uwU6LOy/gA8YlAKS0nU+bsqGInIoxfbzIlW0hhwytna/z9bmO/kqz0Fajl9QHb/XJaexMzwNqCx7t2PxKpIjzUrqPv/qKV8Jz8QWPDkRW3AI3YpKZJnFXdH29NAb9z9dAbRgRa+mFekKgPPycuXALEFAOLkjM+ydCX9aEsqITulRjwmOMrEdbWLjpLn5N0uAv+VtwLcZ043KJNnle82lKPhx5G7LUsjNcY7tb91bvCcvB8wQyJtJMhFC+wcHbHvrQKT/ad51jRu9wYVDyfiH/fq3Kd9LL5TRPlN3ngm8MISA4pR8YsAnxfV9yTgTu/t7iXo+G+vpWOOTPFy0Y8CGPhN3vE+8NFPQFbU7sAUxpNSRj7kMq4+lbKnLY3jnnGaGoTleo3dWe+HBg9+k68DDhgHZlaNAq2Zws1/uzzKjn2GeQdQvt3oRQO9rNayOM6DyrnY7SeVf/hNfiX407qDnjELdFDmLPjn74wqrszBXPYFz8bQqLQismhwiuOIPgxz+pm5gd/kIXLNQblP8hXA+85//3lEBrVOp+PpU+qCwLZWNNjLuz3JQc6bKExcbvvziw+vyXcHf+wrkPHUZjfoEZ//zVC36HMtG3Pd5x2uRSX/1m7mC7R2CerP+2v/6r7BZ/KmAeDvW8lgk3/3v17eMrOf42r57+dXoWHQtfgTSckvON/v17sPn8k3B2cA5zbAJx9RZI0a1F//GXfZP/rDhrhFz2P5axSjQ8hkN8ATeUzeYCPYT/0Y2HPMHZiDHfrNmVqsxcUCTPbJ9xsQJj8xGEX9TFvjAwwZ4jH5ahBe6oXAWjblbwFVhe/Wl2Hvt3l46NVp+6oS89+KzBrcKUCIz8u6UFsGfjd/yUsng5Wt5FYMPvkbPwqOWByOu+5j53iTMega19mCcsJn3h0F9Vj+kq9wB/yV1zwIkN/zQ/NJg41xmOgL7g50JADeax5CUxa2MHhOGZGwycvHgAMqCpcY0SLPMMXa3MBd9olH2uFadqwHBaBc5tKW1YKtl8tb8k4QzulPPcDPqRvBkfzXG96IN5joCz9udcHhLm1wCsVXV3AVIfWLt+QnQvyr3ykDfk7D96Cn7Pz5xLsuicE05isSJhfnetzLS23JQeCeG9wPpUYyX8nbQYRN5q8VkSA/51c/9zkdj+kgVwT2LsnFfysrMzYC4TXKNzPRtheekpfAVLmIa8SQID/6l78vPvACtv/2UBv0KjtWA66gVLb6uKcp4gt4Sr46zAl7XqYB8ozUfcJTTPRs1ArU/NuG+1FKGOad62oj0gnyxXfBqNVtGCLkNwAv1O6bMA07bN6zccUQvt9lWSSKfhEzwAldl+An+e4wpcDDoO4vYLPAHvBDjOqeyVBjoVfnP2tjCrcsRbaDUOrkKeLXOnKp4cJL8l7XIKZZNRXqWZzv89/4DfvexPXfshvqwdzurf0CUB4af6AOt7sDH8kbTYXZ6yNLaZI8wzjPf4V5w1NHzasM8t8a+W5E6biUe7kv12gAPpKv/Rbmo5ebaZY8I2+47gvmqs99OPXXlQxLL3yF4ItVvp7qxjC6Q97wCpRDpBncqekB9NI+hvaZWTW+hrvjp5/x+/mNxLDLS5SbXNYaH4xoXx6Snwy1qR6ALD5uuxfon4e3s4iMe4fn4al6quQ9lX+omopMfAMQVAlV5jUfrKKcvCMvbg5V/+FzX8j7KzgmJwqp67vDwlDMhBz2w8Ky3yvj8prrEbI91Bl3+2NG9/OOvOcNGGup8hRsvQrTdaBnvUfTQgx8t2An5Fzr963/tuw4pBKGT2Z54Vbj5Bv54quhst2TekM/cS7wXoRq97TseQ4zJV+deLTt/4ZLWfa+iGIijt9aE78+E8/IGw6BM1oeLUaOPNK3/ser4DwyHNePE7vrXwdLzaOfER6Xd6kViYbZPCPf8C3c11eFHx2w9kL2XA6Oc5dFqbj5tzF/2P9tg5E5zc1CMBTkh/UpRiR1k1/kHV7CKc7HEL69E6hAkmIbp5nzPRiP67u/38te4jLyNUrsReQqEuudd+RLXoD7/tQ6CKOrAayVfd6c09RZ9cM97tmsfVPOIjxD/WmLL7GuKnwib7MaLqZcucESYXTON0HPe1CO29xJ3JBiJ/DldOfiDKOD5M0mQVqswxqg+KJlwDzUl/W4zp6s+roUjXF/P9KJZF8F/pCX9YIs4alYg7Y7bwS5PBMHcJ4+kWGt8+mawK6IW+FKth4Lb8hLeyfDaXfqO4ib8xRQ4yrFPJw5Nez1JJs6+MQDNRnCwhfyss6weWOfeyJ+Yhugye0gXgPSUgufK6hyzwgYQb6yNk/IS1q9h52GHajabVVgr4gnmG2Hjeqs+UKPu/LFRA8KjZP4QV7W6hHs3fgDcuswq0jQM780x51Gqwb3aIHPWVWOSuWlpuE8IC/rEQm7XeYNRtfCAoGqwxjsW7Ko+KAX+eSxq7IuNKDSOsW6f4RK++QNeiXD+rxVhzjUlN8KfOx+Evdk5wWhpCvsZtzsb0ljvRdvco2IFwOTfLHB8EUBXnFRccHdTN6WJjKh9fd9IsldETKjLA3uRvXXJ7I8IG8/G/5CnDbViMOXtgbPcUcyc2rb+0IWMfAJ632pFFAvNe+lgtU+ebG7fxL0XCgvcFqbZuAn7yE0qwYuI8PJcC+43KY4haYJjGGn55nEfNY45CtdRVgk8c24+SfB1a5TidnHDEquTcO/3ed96GpKoy+acf3LmQSjFbiTlzeOQ3BRKuZzvNZCtC2rT256pXWPfMaL2yh8M59Ot/vqG4FuBo2QF9mNR/F3KC9yvdf6gj2hG0jOsFWfM4UY4D9vbSSjwF3i/kcIhJ1YA+QNqm9BcnQ9qsb1m13AXxziQnSWS814xf2A70ijgCpTfCBUrJ8GyBsOeYBk+njTibOmW3w3+KAfRvjmVG09t34UoSPK0ODO1DiSAGVtoE/efhNa7HLSBO42TNko4LmrPkW4Wq3IqMaVbNSkDFX8SjcaNzmZw9IMSCsTZfIio5ZBaCdh9ipzjC8HJ9Gzkc3IT/iQh0i3e1XCmSo0lrvEdQx8qDBd8pIqK1FDWU5gtQbzAOfDFSwyIj7l4rILXsDf8DIvDKJSJdukz0WEWD+q5N2GhKCefsEeWB9vvhH8iuueFGbduN5KWAvlsyluNBrhGNTdhORBpkjesuc55JJDbzAbwIpGgdWtrL40uk8xxVpeh6kGkLa5nAmN1zsuCUU7VumRb3goDtmjlTIGdyf2fQ1+y00HGlPPiG2HvAJcYtRpZxrS2OjF5gOjUF3HiV1okBeb1Nyfge7JzFlqgTsHVmch1Oz2DCVxnff2Vwsv504PGtxFVmh1V/4jcU0okLfx283ljpu/m0Dj16mZECe9jBZ6ptnun9ZPVoYsdqHxSrmvfzyH2X6HEvMUBUW+ZPsdXEbCsodJOKkrQMT5FTSlRl5k2/Pijyurxfv7ymm80WXRC05xIhEoNZrBGkx5iee4Ex+5WTPPlSIxEQYHYV5lSA09I3Ud+qN8gnN+VjR8sab973JswfYE5TXgx/VZ/SKNY5GRM+XJzEVTCFvGl64ieugZA9fVX4osElVO1EAzGjc5U9/T6VxrukwjSz6La6V4xQkPUjBCIYxo50syNEVabtnjf/WNj1eGWdN4i0m5zdxbWGeiDMmYpSb5R9yITcgsiPclj5IydMVl+uFrwbFxb+9f2E0yPfJ/bnJuU4IxZvwoyrsq0iN/2J3clPjANCO76k6ZPCO2KlurbccWlVyoBNEzpoMuZGJMeAqSyaw6NfDnShOcE2sYHS9nrCEjZKlyJgEnHKhgkRkvyJNS7v57seoCo+3G1hQudgO3v/DaMCgPoVkWatHhXnDck6ymXeEuzGtPGwsVfOkRoXgzrgjwQXvjECrgE1fbE54Zo0VQN4x+wuRu1fEyZqutwlO+iO9cRgP8+3HkO7m3iYZ584vKAuQua7g1HnPGU9Yha1WnKYB/1p2CDd36DMwpmL/BVHDgS85/U4g542FD0bsoPyPOXXGlIY1oNFFbqHUR118iKOxi064fMLutqBLWuKPPuOc70uAztpYR05mkvVDvf1hdJBzuouJtLmEe8Kovl6pyeXX9T4TBx02gdqeuBFXRpnBzMcGAN2i4+TPmfGdeG2bD6d39kolyV77sT3GijsBtOpOEAt5tegjuhD//04vj0TotkyT4givN5RRnqh5cPGRiXUFwt+x3A7eLYv72Cpzj/3aTLBSRs82Lqs+k2GY4I9dLd/4f9YYNLmThZW6qc6825Z7GUOwiQZ0+rp0p5RmvA9fMXXXJhefcjcutzMHdXwOxAvxrPSfFXZ28vxT1CTNbAncByvG34TN3icfEF5h7rTJsrSvWGPomkFrwweNsNTBn9SC7hiSOMeLxRj/8Gu4Bn7ilGd4VSragkAz4/F315BqZNH9Iq8fHRrwFX+NAIu5032hpg3muljxMBvyH0SU0NG0+kG0z2I8+Yj5il7ou/4RZjqXw/XhL7G+rTuKYVyX6e8g0NnXTYA/IN41lvOMucRqJazNVvFlDQJ8SdSJQBezL8doavQU/gv2HDG7BN/TFO5/Cne3E3U1IOEWMZ2JzzwwYouEIqHawKdyqoDq82vBlvls+4nXIZHNvDCRjmrY9iW2snVZW07Nr4Q99DF134xF461WRuL6ZyCmkLGWlMQ+d5NmVTDQ+gyKfO7ArR/nYjifGPHGx3mGYJZVV2avc5aQ+ZxSG+VCd/2mVm1ZCXaVD4I0Qtyvy4qy3bnkR0wevTjpPMm/wFveRZD2aVEJb81h8F/S2qXzQzkTr3A1rbo3DPFbzAkaQzOxw5fx/mHZ3jqsWp7J6FPweGTpAy9Y8iefMIFw9+s0UT6KRRlO5Bl8cHF7BQKuTOQFhtLGLtOub6X83A1Ojz95el6yB1DCQ0zgi/6pVUqrt/fMhwmTm/WWlNT1P7nM1E7P7cc7tFqRdoC2QI33VBWkBfZ35kMxQ4Q2KP/OEt3b+VY191uCaynJe9ieuRks3oF0v1ZlRV6dXZfghsj4olRyUAS3kWhik29RXuF2Pw1ZSMEmUuYOkXEYe/rMOj1KXLBcgNZcMna5x9KZ9LuO2PE7e3oRG9kBv+M1eEXlovJ8VwytxPo3k8krf5aHR4UnrHMBNm2EDm9nRGJrdLsidKOHcrLZVta7TfW/KK4/WSbowqKVcY4qexHFtHKYvVhE52ZHKeEVNwR2E1fkZ92f72lsa8jOesQViM+Hktd6aSb+ROg34gOsQebOmLKXRWayHsNfM43fOwhJUxflBbw2E54lsupzFNNWyiceaULM6V4SwJwZX5zV4puRe1B01eVsD6nb8Jns+YnLPvTGMomV8DcRJs8eE3+TF5c8hhyqHz6HrbnCZGYmbwfBxgjvFf08PiDMyuQ/DcxHXfoxsGM190cGY1nFv4PxnGOZNTpW7tQzNC6h4M8wdWACZiXU4JKYpAnuVpBFOYuQ+EzfITp18sTHdWxRUBu18RgDSKYnDBOcc6+9KeoKlnpOe4F7gC2+MtKY7XaZbIOJDCr2EQJ6ZksopvODMNB+ih2nZcQHY0axh88vRni2okjMPBAGesZjHKVlEnfliJbGYYVnt9UEpuNzTdzWgbh132A+jfo4UBnnGfhPH23N+0rHGxtibvsjApm9AUgHuAV9wv7k59VhW2WAY49cHD4GQZ4r7c95nFcFTaznixOzIHOsswM6V+qp4BGuk2kMFmJJ7Kn8LoZBnrNdgZAemnZvRhmPZCUP3FhPPpOFzV4St9NBE7LrBepjRxLUSC4Y8Y7UVZ7dVxV//qwOyrm9RZ+TaKzEsAcnY1sRcI9PUCGpvPOrACEhKzE3FW3UfHp6a39UJ+n12TefeDE0hUm6k8FYvO81Mkt11KNfsIGFVlTOfjqtbq3LT4p9vGVDRxEguk/x4vxNJpHLjErX+2P8gLjmXJSLK95MdNeQAN1kCU1pMfdmOEZbIJhGqAZF8//C6cd1q+ni5OjhYm/8jtg4ODq6e5Ws2GTD7JG6GVNH/tti1pTQ1QfIhUJEiqUMZoYl8YhJBJmxS+K0zZ3Ys+0f2njlz5sZr4iUj2c8nWmvOxVEHzsL4sKTgyDOyUW9ZIUnBrf72mgt5sTkC59EexghQDNs9EBD4lDGemsxWmQOnmKRYCJE8I/W5XCgM7KqMPeU1meopagRVOJZVL2QEKiV25AlivZ/31WxEa0XIfhlPnIVKnjFc+5n33PMe0PbFfivOx+D2wqwRcsGSZ0zHRPCbuzJiQSUNz4nTRsgo5QtlGAGLSZt7Ch6Dz95SV9NNN8zmQ9ZdjOsrETJ5Ruq8toCn2NWFj1uZazp5QTIJ0pWpPGLJCF26vc7nI/fsYAqNnYAWrtGw4/vQVPDgGUn1A2n8Ix++1Fvzu6lRN+h0n9WMLojTpHCecU892EwLqciyLhGwcekfXXSCPGPke5NP3BV3e2jDIC5r/QS6YsdURkdE7Dznk4on3FWfRjtqIxlZ3PYjbAyB+qwjozvivTuOD9yVH/drp8+CWc9seCWkDqNLIu96J0vb3NWJx1tpxzJmNQk+UCltmjGjW+I1K1SpXfKXB2rJ411yPkJRlJPOjK6JSZ2t2VrkHjPHTUt2seIbEUITPzVkdE9EFo1uFWhL1cucba2lr7bajeC1VE+VMjop0npHP2ppz89dr5UYZpMm91FGeYPRWTFutTdWS8v+dE2NV9sWlZiIlAgQUYfRYTHtujteK+QVT/qaa/hby+1EajYcP0iuy+QZsW3L3UnaQK+KnavZ4LZGQUi+yuxV1oyOi9jSa0F0oVrz7LPPO2ksVU1kMhYtPFx5xlHE/AZi1vlklBZC9WJG2WvmcmdS+xBi9s+j0sxvIvLqK+8kafyWl3G0hSY6v3jMikYc2OemzO8jUs9B2x5qPHQjfBZ1l0ixXpdQo5FSJzK/lYhtvDtveKZh+FkXm1G930lr7YlD3csK11kzv5uIzUvUWx1eoNSgwqeM21uO2mkvli14h5xmorpUTsT8liKtNON6aFyG5ux7qWs8aETeioxLD37NwdRw3oP5jaVk28m7r71KRp42dfaHVA4bRvT8asRVPYMaM55yOboCazC/uRg6+w5YdPjWmwzYbftL8Nmd00a1n8Ql8KMwaEY1sqOvNesJp3TCUF9GL18vew5etZr1nLLlTPgv+ReGX/Gf1aZR5VJ/R9kYD+XmwHu+llzFbWm1jSE5nIYR20ZP/V81ydDC2rFUra49/1y9I+D+/fsh6fn5+UnB9+9f2rh69YyePXs2KeNoY/ZvFTX5Cm4qQn7ChW4W+GY9kcSi9YF4jleUhIFyPXAMk+DcdK7K3pdJle2w2qsYlmrqzznOUP2+j1SPD0dsFiRznXzVpyOT/Jw4zr/UsemkIAyDRNI4Az08PLFbhRPs9f7kgs4uyHd8kwo9552IwbmLJk6w0KPDvhVux7rhF8bc3T2isS38+5w6LDodFIdnf/wyxFAPjoC1/C9M/48iPeH95UWN7AykEvFPD36xWCo1dG03+3JMUi7m+9QJg4302IioeXNSSNiAFe+v7Zjeu36Fsk72X8X0P2JpZ2/vUMatQu0Ri84+JmREftxcr9yRWvXjP5Az/2dE3jzxVRb+R9YfPXHickhYOktOgvz0xIiJyVBepHHBRWI01PMiKMadPwkE/KU6elpERdoiRi0A7gUHPMV6WISl/Lkc3oP/OMtMD4q8uKxO5Tn4Fz30pnoqYjE6ic/cFRf1Xllqh33Xp/wFn73dQ6JHRA19jfN8LcWXNruYSA+IoljPecdH7jnPaurZ0Ba/O7yrwqh6t8pRD4a+eKyN5Rf4wpud9Jc5TYioeNcHfKq5nLu6vF6105AYlFml4otFTx3ZzVxPRINS92IaH9grY9e76GFoVmwmPNT+BS/lWFtjPQqN3+2rLNOy/y7v5ihrPQdtiFmbC1pspaWKmOSlj73RkkgcBodoSctXq1Z76oPttClGvZ5pQdUriD9WUT/32ha7cQEpGmYfvq2V/ibHhz2/zMgLGlTzFSFrmuoVer6wdxt2S0MBO8qQWbVN9DPOH5GVbLE3k/6er04Y7Wysd8byTUzGBMbRdONlRB1ur1fnecrez/9eJiV/XNSVyRX16bH8FQOvsXvfky/IlHF9YStb/ezyW8R2vlMvEQ3SzXm2vrWnPjdWENYd+wqD9yWQ0ffUt6bUddbnwgtKKswLiE7C0PhUuXEhu3vq93ghirRsn9U3whI5eHUU8c+vH1rcxEY/h8IVp8YDpq08GBgOX3IlK/T85lm9ajnqFXkdOPdLVKzTbvjSU4GJvy6G8fbF2W0Lx7atXcZSnxWpS1u/qa1j2XIDBgyY6L9x26WgoJB/+i/kRgR9lTMbN84f4FeutItdMVOZTn31/wMiPt9mZffdjgAAACV0RVh0ZGF0ZTpjcmVhdGUAMjAyMS0wMi0xNlQxNjo0Mjo1NyswMDowML+2C5oAAAAldEVYdGRhdGU6bW9kaWZ5ADIwMjEtMDItMTZUMTY6NDI6NTcrMDA6MDDO67MmAAAAAElFTkSuQmCC;textShadow=0;imageBackground=#FFD966;imageBorder=#B19545;" vertex="1" parent="1">
          <mxGeometry x="-280" y="489.37" width="20.96" height="21.25" as="geometry" />
        </mxCell>
      </root>
    </mxGraphModel>
  </diagram>
</mxfile>
